<svg width="1248" height="832" version="1.1" xmlns="http://www.w3.org/2000/svg" desc="Created with imagetracer.js version 1.2.6" ><path fill="rgb(232,246,252)" stroke="rgb(232,246,252)" stroke-width="1" opacity="0.5137254901960784" d="M 885.5 144 L 892 144.5 L 885.5 145 L 885.5 144 Z " /><path fill="rgb(232,246,252)" stroke="rgb(232,246,252)" stroke-width="1" opacity="0.5137254901960784" d="M 928.5 144 L 934 144.5 L 928.5 145 L 928.5 144 Z " /><path fill="rgb(232,246,252)" stroke="rgb(232,246,252)" stroke-width="1" opacity="0.5137254901960784" d="M 935.5 144 L 938 144.5 L 935.5 145 L 935.5 144 Z " /><path fill="rgb(232,246,252)" stroke="rgb(232,246,252)" stroke-width="1" opacity="0.5137254901960784" d="M 941.5 144 L 945 144.5 L 941.5 145 L 941.5 144 Z " /><path fill="rgb(232,246,252)" stroke="rgb(232,246,252)" stroke-width="1" opacity="0.5137254901960784" d="M 468.5 164 L 465.5 168 L 468.5 164 Z " /><path fill="rgb(232,246,252)" stroke="rgb(232,246,252)" stroke-width="1" opacity="0.5137254901960784" d="M 859.5 222 L 860 228.5 L 859 228.5 L 859.5 222 Z " /><path fill="rgb(232,246,252)" stroke="rgb(232,246,252)" stroke-width="1" opacity="0.5137254901960784" d="M 382.5 224 L 383 227.5 L 382 227.5 L 382.5 224 Z " /><path fill="rgb(232,246,252)" stroke="rgb(232,246,252)" stroke-width="1" opacity="0.5137254901960784" d="M 638.5 253 L 640.5 256 L 638.5 253 Z " /><path fill="rgb(232,246,252)" stroke="rgb(232,246,252)" stroke-width="1" opacity="0.5137254901960784" d="M 759.5 259 L 760.5 261 L 759.5 259 Z " /><path fill="rgb(232,246,252)" stroke="rgb(232,246,252)" stroke-width="1" opacity="0.5137254901960784" d="M 633.5 261 L 634.5 263 L 633.5 261 Z " /><path fill="rgb(232,246,252)" stroke="rgb(232,246,252)" stroke-width="1" opacity="0.5137254901960784" d="M 820.5 321 L 819.5 323 L 820.5 321 Z " /><path fill="rgb(232,246,252)" stroke="rgb(232,246,252)" stroke-width="1" opacity="0.5137254901960784" d="M 746.5 322 L 747.5 324 L 746.5 322 Z " /><path fill="rgb(232,246,252)" stroke="rgb(232,246,252)" stroke-width="1" opacity="0.5137254901960784" d="M 815.5 326 L 813.5 329 L 815.5 326 Z " /><path fill="rgb(232,246,252)" stroke="rgb(232,246,252)" stroke-width="1" opacity="0.5137254901960784" d="M 428.5 327 L 429.5 329 L 428.5 327 Z " /><path fill="rgb(232,246,252)" stroke="rgb(232,246,252)" stroke-width="1" opacity="0.5137254901960784" d="M 471.5 394 L 472.5 396 L 471.5 394 Z " /><path fill="rgb(232,246,252)" stroke="rgb(232,246,252)" stroke-width="1" opacity="0.5137254901960784" d="M 643.5 399 L 642.5 401 L 643.5 399 Z " /><path fill="rgb(232,246,252)" stroke="rgb(232,246,252)" stroke-width="1" opacity="0.5137254901960784" d="M 801.5 412 L 802.5 414 L 801.5 412 Z " /><path fill="rgb(232,246,252)" stroke="rgb(232,246,252)" stroke-width="1" opacity="0.5137254901960784" d="M 457.5 424 L 458.5 426 L 457.5 424 Z " /><path fill="rgb(232,246,252)" stroke="rgb(232,246,252)" stroke-width="1" opacity="0.5137254901960784" d="M 524.5 434 L 522.5 437 L 524.5 434 Z " /><path fill="rgb(232,246,252)" stroke="rgb(232,246,252)" stroke-width="1" opacity="0.5137254901960784" d="M 498.5 435 L 497.5 437 L 498.5 435 Z " /><path fill="rgb(232,246,252)" stroke="rgb(232,246,252)" stroke-width="1" opacity="0.5137254901960784" d="M 781.5 443 L 782 445.5 L 781 445.5 L 781.5 443 Z " /><path fill="rgb(232,246,252)" stroke="rgb(232,246,252)" stroke-width="1" opacity="0.5137254901960784" d="M 440.5 456 L 441 458.5 L 440 458.5 L 440.5 456 Z " /><path fill="rgb(232,246,252)" stroke="rgb(232,246,252)" stroke-width="1" opacity="0.5137254901960784" d="M 730.5 499 L 731 501.5 L 730 501.5 L 730.5 499 Z " /><path fill="rgb(232,246,252)" stroke="rgb(232,246,252)" stroke-width="1" opacity="0.5137254901960784" d="M 644.5 707 L 645 733.5 L 644 733.5 L 644.5 707 Z " /><path fill="rgb(232,246,252)" stroke="rgb(232,246,252)" stroke-width="1" opacity="0.5137254901960784" d="M 468.5 718 L 469 724.5 L 468 724.5 L 468.5 718 Z " /><path fill="rgb(232,246,252)" stroke="rgb(232,246,252)" stroke-width="1" opacity="0.5137254901960784" d="M 468.5 726 L 469 729.5 L 468 729.5 L 468.5 726 Z " /><path fill="rgb(0,0,0)" stroke="rgb(0,0,0)" stroke-width="1" opacity="0" d="M 0 0 L 1248 0 L 1248 832 L 0 832 L 0 0 Z M 357 8 L 342 11 L 336 11 L 323 15 L 302 26 L 292 34 Q 279 46 269 61 L 258 88 L 257 101 L 256 102 L 256 724 L 257 725 L 258 739 L 261 749 L 270 768 L 277 778 L 281 780 L 285 787 L 292 791 L 293 794 L 312 806 L 321 810 L 324 810 L 330 813 L 335 813 L 339 815 L 350 816 L 351 817 L 895 817 L 901 815 L 906 815 L 910 813 L 915 813 L 935 804 Q 937 805 936 802 L 939 802 L 950 794 Q 952 795 951 793 L 954 791 L 955 789 L 958 787 L 959 784 L 963 782 Q 962 779 965 780 L 971 772 Q 970 768 973 769 L 983 748 L 983 744 L 987 733 L 987 723 L 988 722 L 988 143 L 986 140 L 983 138 L 982 136 Q 983 133 980 134 L 973 123 Q 970 124 971 121 L 969 119 L 961 110 Q 962 107 959 108 L 958 106 Q 959 103 957 104 L 932 73 L 929 71 L 928 69 Q 929 66 926 67 L 920 58 L 917 56 L 916 54 Q 917 51 914 52 L 908 43 L 905 41 L 904 39 Q 905 36 903 37 L 895 26 Q 892 27 893 23 L 892 23 L 883 11 Q 880 12 881 10 L 880 8 L 357 8 Z " /><path fill="rgb(255,255,255)" stroke="rgb(255,255,255)" stroke-width="1" opacity="1" d="M 360.5 42 L 838.5 42 L 840 43.5 L 839.5 164 L 825.5 153 L 803.5 143 L 785.5 139 L 766.5 139 L 761.5 140 L 759 142.5 L 759 146.5 L 762 152.5 L 775.5 167 Q 777.8 166.3 777 168.5 L 778 170.5 Q 774.6 175.6 776 185.5 Q 779.2 193.3 786 197.5 L 786 200.5 L 782 212 L 773 208.5 Q 772.3 200.7 767.5 197 L 760 194 L 756 182.5 L 755 175.5 L 753.5 174 L 750.5 174 L 745 178.5 L 739 187.5 L 735 199.5 L 734 204.5 L 734 227.5 Q 739.3 257.3 759.5 272 L 776.5 281 L 794 284 L 786 317 L 778.5 320 L 767 329 Q 768.1 331.7 765.5 331 L 752 315.5 L 748 293.5 L 745.5 290 L 724.5 290 L 721.5 291 L 719 288.5 Q 715.8 275.8 708.5 267 L 698.5 268 L 684.5 272 L 674 256.5 L 668.5 251 L 646.5 261 L 629.5 245 L 625.5 245 L 608.5 259 L 606.5 259 L 586.5 248 L 579 254.5 L 569.5 267 L 553.5 261 L 547.5 261 L 544 264.5 L 535.5 282 L 528.5 280 L 514.5 279 L 511 281.5 L 505 303 L 481.5 304 L 480 305.5 L 479 307.5 L 479 322.5 L 477.5 331 Q 469.7 320.2 456 317 L 455 308.5 L 448 284 L 466.5 281 Q 478.4 276.4 487 268.5 Q 486.3 266.3 488.5 267 Q 499.4 256.4 505 240.5 L 508 227.5 L 509 211.5 L 505 192.5 Q 501 181.5 492.5 175 Q 487.1 173.1 488 176.5 L 486 180.5 L 484 191.5 L 481.5 194 Q 474.9 194.9 472 199.5 L 469 210 L 460.5 212 L 456 201.5 L 456 197.5 L 466 186.5 L 467 179.5 L 464 169.5 L 479 154.5 Q 483 150.5 483 142.5 L 480.5 140 L 476.5 139 L 456.5 139 L 437.5 143 L 421.5 150 Q 404.8 159.3 393 173.5 Q 381.7 186.7 376 205.5 L 374 214.5 L 374 236.5 Q 378.4 259.6 393.5 272 L 402 277 L 403 280.5 L 402 285.5 L 404 293.5 L 412 308.5 L 429.5 329 L 436 333.5 L 438 342.5 L 450.5 355 L 461 361.5 L 459.5 365 L 448.5 366 L 436.5 369 L 429 374.5 L 425.5 381 L 420 385.5 Q 410 398 404 414.5 L 399 433.5 L 399 445.5 L 403.5 452 L 410.5 451 L 422 440.5 Q 437 424.5 445.5 402 L 460.5 401 L 460.5 402 Q 448.3 406.3 441 415.5 L 440 420.5 L 434 432.5 L 433 444.5 L 432 445.5 L 432 469.5 L 435 485.5 L 438 492.5 L 442.5 497 L 446.5 498 L 453 492.5 L 459 477.5 L 463 461.5 L 464 438 L 476.5 434 L 494.5 423 L 499.5 422 L 496.5 426 L 492.5 428 L 479 441.5 L 477 445.5 L 476 464.5 L 482 487.5 L 492 506.5 L 502.5 518 Q 504.8 521.2 511.5 520 L 514 519 L 516 514.5 L 516 497.5 L 512 476.5 L 509 466.5 L 506 461.5 Q 521.5 452 533 438.5 L 536.5 434 L 562.5 440 L 586.5 442 L 587.5 443 L 597.5 443 L 598.5 444 L 646.5 444 L 647.5 443 L 657.5 443 L 658.5 442 L 681.5 440 L 709.5 434 L 723.5 449 L 740 461.5 L 735 473.5 L 731 490.5 L 730 512.5 L 731 516.5 L 734.5 520 L 742.5 519 L 752 509.5 Q 761.5 497 767 480.5 L 770 467.5 L 770 456.5 L 769 455.5 L 769 445.5 L 763 436 L 745 422.5 L 747.5 421 L 752.5 425 L 773.5 436 L 782 438 L 781 445.5 L 782 446.5 L 782 455.5 L 785 466.5 L 785 471.5 L 790 486.5 L 796.5 497 L 801.5 498 L 807 493.5 L 812 481.5 L 814 470.5 L 814 445.5 L 810 427.5 L 801.5 412 L 783 401.5 L 789.5 401 L 790.5 402 L 800 402 Q 809.9 430.9 831.5 449 Q 834.1 452.9 841.5 452 L 845 448.5 L 846 437.5 Q 843.3 435.8 845 429.5 L 840 413.5 L 832 396.5 L 811.5 371 L 799.5 367 L 785.5 366 L 783 365 L 782 362.5 Q 795.3 354.3 805 342.5 Q 807.8 339.8 807 333.5 L 809.5 331 Q 817 328 821 321.5 L 835 301.5 Q 840.1 294.1 841 282.5 L 840 278.5 Q 850.3 272.8 857 263.5 Q 864.4 253.9 868 240.5 L 869 218.5 L 864 198.5 L 853 178 L 952.5 178 L 953 178.5 L 953 566 L 290 566 L 290 107.5 L 291 106.5 L 292 94.5 L 299 78.5 Q 305.8 67.3 315.5 59 L 335.5 47 L 344.5 44 L 359.5 43 L 360.5 42 Z " /><path fill="rgb(255,255,255)" stroke="rgb(255,255,255)" stroke-width="1" opacity="1" d="M 874.5 55 L 945 144 L 935.5 144 L 934.5 145 L 933.5 144 L 885.5 144 L 884.5 145 L 875.5 145 L 874 143.5 L 874.5 55 Z " /><path fill="rgb(255,255,255)" stroke="rgb(255,255,255)" stroke-width="1" opacity="1" d="M 458.5 148 L 470.5 148 L 471 149.5 L 462.5 158 L 461 158 L 455 166.5 L 455 174.5 Q 457.8 177.2 457 183.5 Q 448.4 188.4 446 199.5 L 450 210.5 L 450 219.5 Q 446.6 224.6 448 234.5 L 449 235.5 L 449 249.5 Q 446.5 262 438.5 269 L 435.5 269 L 429.5 266 L 420.5 265 L 413.5 267 L 409.5 270 L 406.5 270 L 394 259.5 Q 380.6 245.9 383 216.5 Q 389.9 183.9 412.5 167 L 434.5 154 L 458.5 148 Z " /><path fill="rgb(255,255,255)" stroke="rgb(255,255,255)" stroke-width="1" opacity="1" d="M 771 148 L 790.5 149 L 809.5 155 Q 829.9 164.1 843 180.5 L 850 190.5 L 857 206.5 L 859 214.5 L 859 237.5 Q 854 257.5 839.5 268 L 834.5 271 Q 829.3 264.7 817.5 265 L 804.5 269 Q 792.6 260.4 793 239.5 L 794 238.5 L 794 224.5 L 791 217.5 L 791 213.5 Q 795.7 207.2 796 196.5 Q 792.5 188 785 183.5 L 785 178.5 Q 787.9 174.9 787 167.5 L 786 164.5 L 778.5 157 L 775 154.5 L 771 148 Z " /><path fill="rgb(255,255,255)" stroke="rgb(255,255,255)" stroke-width="1" opacity="1" d="M 748.5 190 L 750 191.5 L 751 197.5 L 755.5 202 Q 761.1 202.5 763 206.5 Q 763.1 214.9 768.5 218 L 781.5 222 L 784 224.5 Q 786.3 227.7 785 234.5 L 784 235.5 L 784 250.5 Q 786.9 265.1 796 273.5 L 786.5 274 Q 765.6 269.4 755 254.5 L 745 234.5 L 743 224.5 L 743 206.5 Q 745.3 205.2 744 200.5 L 748.5 190 Z " /><path fill="rgb(255,255,255)" stroke="rgb(255,255,255)" stroke-width="1" opacity="1" d="M 493.5 191 L 496 194.5 L 499 205.5 L 500 218.5 L 497 234.5 L 491 248.5 Q 485.3 259.3 475.5 266 L 464.5 272 L 448.5 275 Q 445.8 273.8 448 272.5 Q 454.2 265.7 457 255.5 L 458 251.5 L 458 232.5 Q 455.8 231.3 457 226.5 L 460.5 222 L 471.5 219 L 478 214.5 L 479 206.5 L 481.5 204 Q 488.1 203.1 491 198.5 L 493.5 191 Z " /><path fill="rgb(255,255,255)" stroke="rgb(255,255,255)" stroke-width="1" opacity="1" d="M 625.5 256 Q 629.9 254.5 629 257.5 L 633 260.5 L 634.5 263 L 643.5 271 L 648.5 271 L 666.5 262 L 679 281 L 685.5 282 L 703.5 277 L 715.5 300 L 732.5 300 Q 733.8 297.8 738.5 299 L 740 300.5 L 744 319.5 Q 762.3 337.7 773 363.5 L 778 376.5 L 778 385.5 Q 774.8 393.3 768.5 398 L 755.5 407 L 736.5 416 L 712.5 424 L 708.5 424 L 695.5 428 L 690.5 428 L 672.5 432 L 664.5 432 L 654.5 434 L 642.5 434 L 641.5 435 L 603.5 435 L 602.5 434 L 591.5 434 L 590.5 433 L 564.5 431 L 521.5 421 L 486.5 406 Q 475 399.6 467 389.5 L 465 383.5 L 465 377.5 Q 473.7 353.7 487 334.5 L 488 331.5 L 488 314.5 L 489.5 313 Q 504.2 314.8 512 311 L 518 290.5 L 519.5 289 L 525.5 289 L 532.5 291 L 541.5 291 L 552.5 271 L 569.5 277 L 573.5 277 L 588.5 259 L 604.5 269 L 609.5 270 L 625.5 256 Z M 573 337 L 564 341 Q 557 346 554 356 Q 552 371 558 378 Q 562 385 572 387 L 580 387 L 588 384 L 594 378 L 599 364 Q 598 351 592 345 Q 587 336 573 337 Z M 664 337 L 653 342 Q 647 347 644 356 Q 642 371 648 378 Q 653 385 663 387 Q 675 388 681 382 Q 687 376 689 366 Q 689 351 682 345 Q 677 337 664 337 Z M 595 396 L 590 400 L 591 405 L 603 413 L 619 417 Q 637 417 648 409 L 653 404 L 653 399 L 650 396 Q 642 397 640 403 L 630 407 Q 610 410 602 401 Q 599 402 600 400 L 595 396 Z " /><path fill="rgb(255,255,255)" stroke="rgb(255,255,255)" stroke-width="1" opacity="1" d="M 419.5 275 L 426.5 275 L 433.5 278 L 437 281.5 L 445 305.5 L 447 319.5 L 440.5 325 Q 431.7 321.3 427 313.5 L 416 297.5 Q 411.6 291.4 411 281.5 L 414.5 277 L 419.5 275 Z " /><path fill="rgb(255,255,255)" stroke="rgb(255,255,255)" stroke-width="1" opacity="1" d="M 816.5 275 L 823.5 275 L 831 280.5 L 832 283.5 Q 824.9 305.9 809.5 320 L 802.5 325 L 795 318.5 L 804 284.5 L 809.5 278 L 816.5 275 Z " /><path fill="rgb(255,255,255)" stroke="rgb(255,255,255)" stroke-width="1" opacity="1" d="M 453.5 326 L 459.5 327 L 471 337.5 L 472 341.5 L 466 353 Q 453.7 348.7 446 338.5 L 445 334.5 L 448.5 329 L 453.5 326 Z " /><path fill="rgb(255,255,255)" stroke="rgb(255,255,255)" stroke-width="1" opacity="1" d="M 788.5 326 L 796 330 L 798 334.5 L 793 343 L 778.5 353 L 771 339.5 L 775.5 334 L 788.5 326 Z " /><path fill="rgb(255,255,255)" stroke="rgb(255,255,255)" stroke-width="1" opacity="1" d="M 567.5 348 Q 573.3 347.2 575 350.5 Q 577.7 352.8 577 358.5 L 573.5 364 L 568.5 365 L 564 361.5 L 563 352.5 L 565.5 349 L 567.5 348 Z " /><path fill="rgb(255,255,255)" stroke="rgb(255,255,255)" stroke-width="1" opacity="1" d="M 657.5 348 Q 663.8 346.8 665 350.5 Q 667.7 352.8 667 358.5 L 661.5 365 Q 655.7 365.8 654 362.5 L 652 355.5 L 655.5 349 L 657.5 348 Z " /><path fill="rgb(255,255,255)" stroke="rgb(255,255,255)" stroke-width="1" opacity="1" d="M 450.5 375 Q 457.5 373.5 457 376.5 Q 454.2 378.3 456 384.5 L 458 392 L 445 393 L 444 387.5 L 438 379.5 L 441.5 377 L 450.5 375 Z " /><path fill="rgb(255,255,255)" stroke="rgb(255,255,255)" stroke-width="1" opacity="1" d="M 787 375 L 802.5 377 L 807 379.5 Q 800.4 384.2 799 393 L 786 392 L 787 388.5 L 787 375 Z " /><path fill="rgb(255,255,255)" stroke="rgb(255,255,255)" stroke-width="1" opacity="1" d="M 430.5 388 Q 434.5 387.5 435 390.5 L 437 398.5 Q 427.3 424.3 408.5 441 L 408 434.5 Q 413.6 405.6 430.5 388 Z " /><path fill="rgb(255,255,255)" stroke="rgb(255,255,255)" stroke-width="1" opacity="1" d="M 811.5 388 Q 816.3 387.3 817 390.5 Q 833 409.5 837 440.5 L 835.5 440 L 833 438.5 Q 820.2 425.3 811 408.5 L 808 399.5 L 808 394.5 L 811.5 388 Z " /><path fill="rgb(255,255,255)" stroke="rgb(255,255,255)" stroke-width="1" opacity="1" d="M 472.5 407 L 488 416.5 Q 477.6 425.6 461.5 429 L 457.5 424 L 450 419.5 L 458.5 413 L 472.5 407 Z " /><path fill="rgb(255,255,255)" stroke="rgb(255,255,255)" stroke-width="1" opacity="1" d="M 771.5 407 Q 785.3 410.8 795 418 L 793.5 421 Q 787.4 422.4 785 427.5 Q 785.9 430.5 781.5 429 Q 767.7 424.3 757 416.5 L 771.5 407 Z " /><path fill="rgb(255,255,255)" stroke="rgb(255,255,255)" stroke-width="1" opacity="1" d="M 733.5 426 Q 747.2 432.8 757 443.5 L 759 448 Q 750.3 448.4 744.5 453 L 721 435 L 719 431.5 L 733.5 426 Z " /><path fill="rgb(255,255,255)" stroke="rgb(255,255,255)" stroke-width="1" opacity="1" d="M 510.5 427 L 526 431 L 526 432.5 L 512.5 446 Q 507.7 451.2 499.5 453 Q 495.2 448 487 448 L 487 446.5 L 496.5 437 L 510.5 427 Z " /><path fill="rgb(255,255,255)" stroke="rgb(255,255,255)" stroke-width="1" opacity="1" d="M 446.5 428 L 453 432.5 Q 456.9 438.6 455 450.5 L 454 451.5 L 454 458.5 L 452 468.5 L 445.5 487 L 441 469.5 L 441 443.5 L 444 431.5 L 446.5 428 Z " /><path fill="rgb(255,255,255)" stroke="rgb(255,255,255)" stroke-width="1" opacity="1" d="M 798.5 428 L 801 429.5 L 804 438.5 L 804 446.5 L 805 447.5 L 805 468.5 L 804 469.5 L 804 477.5 L 800.5 487 L 795 473.5 L 791 455.5 L 791 435.5 L 795.5 430 L 798.5 428 Z " /><path fill="rgb(255,255,255)" stroke="rgb(255,255,255)" stroke-width="1" opacity="1" d="M 758.5 457 L 761 458 L 761 466.5 L 757 481.5 Q 751 497.5 740.5 509 Q 737.5 509.5 739 502.5 L 744 474.5 Q 746.4 464.4 753.5 459 L 758.5 457 Z " /><path fill="rgb(255,255,255)" stroke="rgb(255,255,255)" stroke-width="1" opacity="1" d="M 486 458 Q 493 457 496 461.5 L 500 468.5 L 504 480.5 L 508 507.5 L 506.5 509 L 502 504.5 L 491 485.5 L 486 469.5 L 486 458 Z " /><path fill="rgb(255,255,255)" stroke="rgb(255,255,255)" stroke-width="1" opacity="1" d="M 798.5 643 L 816.5 643 L 825.5 645 L 840 653.5 L 832.5 666 L 817.5 658 L 801.5 657 L 795.5 659 L 793 661.5 Q 790.3 663.8 791 669.5 L 796.5 677 L 825.5 686 L 839 695.5 L 843 705.5 L 843 714.5 Q 840.7 724.2 834.5 730 L 823.5 736 L 804.5 738 L 803.5 737 L 795.5 737 L 783.5 733 L 771 724.5 L 777 712 L 779.5 712 L 793.5 721 L 799.5 723 L 810.5 724 L 820.5 721 L 825 716.5 L 826 710.5 L 820.5 703 L 814.5 700 L 790.5 693 Q 782.8 689.8 778 683.5 L 775 677.5 L 774 666.5 Q 776.2 665.3 775 660.5 L 781.5 651 Q 787.7 644.7 798.5 643 Z " /><path fill="rgb(255,255,255)" stroke="rgb(255,255,255)" stroke-width="1" opacity="1" d="M 410 644 L 427 644 L 427 679.5 L 428.5 681 L 468 681 L 468 645.5 L 469.5 644 L 485.5 644 L 486 644.5 L 486 736 L 468.5 736 Q 467.4 735.9 468 730.5 L 469 729.5 L 469 697.5 L 466.5 695 L 444.5 695 L 443.5 696 L 428.5 696 L 427 697.5 L 427 736 L 410 736 L 410 644 Z " /><path fill="rgb(255,255,255)" stroke="rgb(255,255,255)" stroke-width="1" opacity="1" d="M 500 644 L 517.5 644 L 518 646.5 L 524 673.5 L 525 683.5 L 527 688.5 L 529 704.5 L 531.5 710 Q 534.1 710.8 533 707.5 L 549 644 L 563.5 644 L 565 645.5 L 579 705.5 L 581.5 710 Q 583.8 710.8 583 708.5 L 589 674.5 L 592 664.5 L 592 658.5 L 595 645.5 L 596.5 644 L 612.5 644 L 613 647.5 L 610 656.5 L 608 669.5 L 606 673.5 L 597 718.5 L 595 722.5 L 593 734.5 L 591.5 736 L 574.5 736 L 573 734.5 L 558 673 L 555 674.5 L 547 704.5 L 547 708.5 L 540 731.5 L 540 736 L 521.5 736 L 521 734.5 L 518 726.5 L 517 717.5 L 506 674.5 L 506 669.5 L 500 644 Z " /><path fill="rgb(255,255,255)" stroke="rgb(255,255,255)" stroke-width="1" opacity="1" d="M 627 644 L 672.5 644 L 677.5 645 L 691 653 L 698 667.5 L 698 679.5 Q 696 690.5 688.5 696 L 682.5 700 L 670.5 703 L 645.5 703 L 644 704.5 L 644 736 L 627 736 L 627 644 Z M 647 657 L 645 659 L 645 689 L 647 690 L 666 690 L 675 687 Q 679 684 681 678 Q 682 669 679 665 Q 676 660 670 658 L 665 657 L 647 657 Z " /><path fill="rgb(255,255,255)" stroke="rgb(255,255,255)" stroke-width="1" opacity="1" d="M 739 644 L 754.5 644 L 755 644.5 L 755 713.5 L 751 725.5 L 743.5 733 Q 734.4 739.4 716.5 737 L 703 732 L 706 721.5 L 708.5 718 Q 714.3 724.7 728.5 723 L 737 716.5 L 739 710.5 L 739 644 Z " /><path fill="rgb(78,189,234)" stroke="rgb(78,189,234)" stroke-width="1" opacity="0.41568627450980394" d="M 356.5 8 L 879.5 8 L 881 9.5 Q 880.3 11.8 882.5 11 L 891.5 23 L 893 23 Q 891.5 26.8 894.5 26 L 902.5 37 Q 904.8 36.3 904 38.5 L 905 41 L 908 42.5 L 914 52 Q 916.7 50.9 916 53.5 L 917 56 L 920 57.5 L 926 67 Q 928.7 65.9 928 68.5 L 929 71 L 932 72.5 L 956.5 104 Q 958.8 103.3 958 105.5 L 959 108 Q 961.7 106.9 961 109.5 L 968.5 119 L 971 120.5 Q 969.9 123.8 972.5 123 L 980 134 Q 982.7 132.9 982 135.5 L 983 138 L 986 139.5 L 988 142.5 L 988 721.5 L 987 722.5 L 987 732.5 L 983 743.5 L 983 747.5 L 973 769 Q 970 767.8 971 771.5 L 965 780 Q 962.3 778.9 963 781.5 L 959 784 L 957.5 787 L 955 788.5 L 953.5 791 L 951 792.5 Q 951.8 794.8 949.5 794 L 938.5 802 L 936 802 Q 937.1 804.7 934.5 804 L 914.5 813 L 909.5 813 L 905.5 815 L 900.5 815 L 894.5 817 L 350.5 817 L 349.5 816 L 338.5 815 L 334.5 813 L 329.5 813 L 323.5 810 L 320.5 810 L 311.5 806 L 293 793.5 L 291.5 791 L 285 787 L 281 780 L 277 777.5 L 270 767.5 L 261 748.5 L 258 738.5 L 257 724.5 L 256 723.5 L 256 101.5 L 257 100.5 L 258 87.5 L 269 60.5 Q 278.5 45.5 291.5 34 L 301.5 26 L 322.5 15 L 335.5 11 L 341.5 11 L 356.5 8 Z M 352 10 L 335 13 L 320 18 Q 303 26 291 37 Q 278 48 270 63 L 260 87 L 257 104 L 257 722 L 258 723 L 258 731 L 260 740 L 266 757 L 280 779 Q 293 794 312 804 L 329 811 L 350 815 L 896 815 L 912 812 L 924 808 Q 941 801 954 789 Q 970 775 979 754 L 984 739 L 986 729 L 986 721 L 987 720 L 987 144 L 882 13 L 880 10 L 352 10 Z " /><path fill="rgb(78,189,234)" stroke="rgb(78,189,234)" stroke-width="1" opacity="0.41568627450980394" d="M 361.5 41 L 839.5 41 L 841 42.5 L 840.5 166 Q 823.6 148.9 796 142.5 L 799.5 142 Q 823.7 148.8 839.5 164 L 840 42 L 361.5 42 L 361.5 41 Z " /><path fill="rgb(78,189,234)" stroke="rgb(78,189,234)" stroke-width="1" opacity="0.41568627450980394" d="M 350.5 42 L 358 42.5 L 350.5 43 L 350.5 42 Z " /><path fill="rgb(78,189,234)" stroke="rgb(78,189,234)" stroke-width="1" opacity="0.41568627450980394" d="M 345.5 43 L 349 43.5 L 345.5 44 L 345.5 43 Z " /><path fill="rgb(78,189,234)" stroke="rgb(78,189,234)" stroke-width="1" opacity="0.41568627450980394" d="M 341.5 44 L 344 44.5 Q 319.6 51.1 306 68.5 L 300.5 76 L 302 73.5 L 304 69.5 L 315.5 58 Q 326.4 48.9 341.5 44 Z " /><path fill="rgb(78,189,234)" stroke="rgb(78,189,234)" stroke-width="1" opacity="0.41568627450980394" d="M 873 53 Q 875.7 51.9 875 54.5 L 905 91.5 L 900 87.5 L 874.5 55 L 873.5 125 L 873 53 Z " /><path fill="rgb(78,189,234)" stroke="rgb(78,189,234)" stroke-width="1" opacity="0.41568627450980394" d="M 299.5 77 L 299 78.5 L 293.5 91 L 293 89.5 L 299.5 77 Z " /><path fill="rgb(78,189,234)" stroke="rgb(78,189,234)" stroke-width="1" opacity="0.41568627450980394" d="M 905.5 93 L 917 106.5 L 912 102.5 L 905.5 93 Z " /><path fill="rgb(78,189,234)" stroke="rgb(78,189,234)" stroke-width="1" opacity="0.41568627450980394" d="M 291.5 95 L 292 97.5 L 291 97.5 L 291.5 95 Z " /><path fill="rgb(78,189,234)" stroke="rgb(78,189,234)" stroke-width="1" opacity="0.41568627450980394" d="M 290.5 99 L 291 105.5 L 290 105.5 L 290.5 99 Z " /><path fill="rgb(78,189,234)" stroke="rgb(78,189,234)" stroke-width="1" opacity="0.41568627450980394" d="M 289.5 107 L 290 566 L 953 566 L 953 178 L 945 177.5 L 952.5 177 L 954 178.5 L 954 567 L 290.5 567 L 289 565.5 L 289.5 107 Z " /><path fill="rgb(78,189,234)" stroke="rgb(78,189,234)" stroke-width="1" opacity="0.41568627450980394" d="M 917.5 108 L 947 145 Q 944 146.3 945 142.5 L 917.5 108 Z " /><path fill="rgb(78,189,234)" stroke="rgb(78,189,234)" stroke-width="1" opacity="0.41568627450980394" d="M 873.5 126 L 874 143.5 L 875.5 145 L 878 145.5 L 875.5 146 L 873 145 L 873.5 126 Z " /><path fill="rgb(78,189,234)" stroke="rgb(78,189,234)" stroke-width="1" opacity="0.41568627450980394" d="M 457.5 139 L 476.5 139 L 480.5 140 L 483 142.5 Q 483.6 148.6 481 151.5 L 469.5 164 L 465 167.5 L 463.5 172 L 463 169.5 L 469.5 162 L 477 155.5 L 482 146.5 L 482 142.5 L 475.5 140 L 457.5 140 L 441.5 143 L 423.5 150 Q 407.6 158.6 396 171.5 Q 386.5 182 380.5 196 L 380 194.5 Q 389.3 174.3 405.5 161 L 427.5 147 L 441.5 142 L 457.5 139 Z " /><path fill="rgb(78,189,234)" stroke="rgb(78,189,234)" stroke-width="1" opacity="0.41568627450980394" d="M 767.5 139 L 784.5 139 L 795 141.5 L 791.5 142 Q 782.8 138.2 768.5 140 L 760 142 Q 759.1 148.5 763 151.5 L 761 150.5 Q 758.3 148.2 759 142.5 L 762.5 140 L 767.5 139 Z " /><path fill="rgb(78,189,234)" stroke="rgb(78,189,234)" stroke-width="1" opacity="0.41568627450980394" d="M 892.5 144 L 928 144.5 L 892.5 145 L 892.5 144 Z " /><path fill="rgb(78,189,234)" stroke="rgb(78,189,234)" stroke-width="1" opacity="0.41568627450980394" d="M 938.5 144 L 941 144.5 L 938.5 145 L 938.5 144 Z " /><path fill="rgb(78,189,234)" stroke="rgb(78,189,234)" stroke-width="1" opacity="0.41568627450980394" d="M 931.5 145 L 936 145.5 L 931.5 146 L 931.5 145 Z " /><path fill="rgb(78,189,234)" stroke="rgb(78,189,234)" stroke-width="1" opacity="0.41568627450980394" d="M 459.5 147 L 471.5 147 L 472 149.5 L 466.5 156 L 458 163.5 Q 454.8 166.8 456 174.5 Q 458.8 177.2 458 183.5 L 449 193.5 Q 446.7 196.7 448 203.5 L 449 205.5 L 448 205.5 L 446 198.5 Q 449.3 188.8 457 183.5 L 457 178.5 Q 453.8 175.2 455 167.5 L 457 163.5 L 471 149.5 L 471 148 L 459.5 148 L 459.5 147 Z " /><path fill="rgb(78,189,234)" stroke="rgb(78,189,234)" stroke-width="1" opacity="0.41568627450980394" d="M 770 147 L 783 147.5 L 771 148 L 777.5 157 L 785 163.5 Q 788 166.5 787 173.5 Q 784.3 176.8 785 183.5 L 794 192.5 Q 796.7 194.8 796 200.5 L 795 200.5 L 794 194.5 L 787.5 187 Q 785.3 187.8 786 185.5 Q 782.5 184 784 177.5 Q 787 174.5 786 167.5 L 781.5 161 L 772 152.5 L 770 147 Z " /><path fill="rgb(78,189,234)" stroke="rgb(78,189,234)" stroke-width="1" opacity="0.41568627450980394" d="M 451.5 148 L 458 148.5 Q 444.6 149.1 435.5 154 L 435.5 153 L 451.5 148 Z " /><path fill="rgb(78,189,234)" stroke="rgb(78,189,234)" stroke-width="1" opacity="0.41568627450980394" d="M 785.5 148 L 795 149.5 L 791.5 150 Q 790.3 147.7 785.5 149 L 785.5 148 Z " /><path fill="rgb(78,189,234)" stroke="rgb(78,189,234)" stroke-width="1" opacity="0.41568627450980394" d="M 796.5 150 L 802 151.5 L 799.5 152 L 796.5 151 L 796.5 150 Z " /><path fill="rgb(78,189,234)" stroke="rgb(78,189,234)" stroke-width="1" opacity="0.41568627450980394" d="M 803.5 152 L 807 153.5 L 805.5 154 L 803.5 152 Z " /><path fill="rgb(78,189,234)" stroke="rgb(78,189,234)" stroke-width="1" opacity="0.41568627450980394" d="M 763.5 153 L 772.5 163 L 778 167.5 L 779 171.5 L 776.5 180 L 776 175.5 L 778 169.5 L 775.5 166 L 765 156.5 L 763.5 153 Z " /><path fill="rgb(78,189,234)" stroke="rgb(78,189,234)" stroke-width="1" opacity="0.41568627450980394" d="M 432.5 154 L 434 154.5 L 418.5 163 L 419.5 161 L 432.5 154 Z " /><path fill="rgb(78,189,234)" stroke="rgb(78,189,234)" stroke-width="1" opacity="0.41568627450980394" d="M 808.5 154 Q 827.8 161.2 840 175.5 Q 849.7 185.3 855 199.5 L 854 199.5 Q 845.5 178.5 828.5 166 L 808.5 155 L 808.5 154 Z " /><path fill="rgb(78,189,234)" stroke="rgb(78,189,234)" stroke-width="1" opacity="0.41568627450980394" d="M 416.5 163 L 414.5 166 L 399 180.5 L 389.5 196 L 389 194.5 L 404 173 Q 406.7 174.1 406 171.5 L 416.5 163 Z " /><path fill="rgb(78,189,234)" stroke="rgb(78,189,234)" stroke-width="1" opacity="0.41568627450980394" d="M 464.5 173 L 467 182.5 L 466 182.5 L 464.5 173 Z " /><path fill="rgb(78,189,234)" stroke="rgb(78,189,234)" stroke-width="1" opacity="0.41568627450980394" d="M 750.5 174 Q 754.9 172.5 754 175.5 L 756 181.5 L 755 181.5 L 752.5 175 L 750.5 175 L 744 181.5 L 738.5 192 L 738 190.5 Q 741.3 181.8 747.5 176 L 750.5 174 Z " /><path fill="rgb(78,189,234)" stroke="rgb(78,189,234)" stroke-width="1" opacity="0.41568627450980394" d="M 488 175 L 492.5 175 L 499 181.5 Q 505.7 189.3 507 202.5 L 506 202.5 Q 504.3 185.2 493.5 177 L 489.5 176 L 488 177.5 L 484.5 191 L 484 188.5 L 488 175 Z " /><path fill="rgb(78,189,234)" stroke="rgb(78,189,234)" stroke-width="1" opacity="0.41568627450980394" d="M 851 177 L 861 177.5 L 853 178 L 864 198.5 L 865 203.5 L 864 203.5 L 863 198.5 L 851 177 Z " /><path fill="rgb(78,189,234)" stroke="rgb(78,189,234)" stroke-width="1" opacity="0.41568627450980394" d="M 863.5 177 L 867 177.5 L 863.5 178 L 863.5 177 Z " /><path fill="rgb(78,189,234)" stroke="rgb(78,189,234)" stroke-width="1" opacity="0.41568627450980394" d="M 868.5 177 L 871 177.5 L 868.5 178 L 868.5 177 Z " /><path fill="rgb(78,189,234)" stroke="rgb(78,189,234)" stroke-width="1" opacity="0.41568627450980394" d="M 872.5 177 L 907 177.5 L 872.5 178 L 872.5 177 Z " /><path fill="rgb(78,189,234)" stroke="rgb(78,189,234)" stroke-width="1" opacity="0.41568627450980394" d="M 910.5 177 L 913 177.5 L 910.5 178 L 910.5 177 Z " /><path fill="rgb(78,189,234)" stroke="rgb(78,189,234)" stroke-width="1" opacity="0.41568627450980394" d="M 914.5 177 L 921 177.5 L 914.5 178 L 914.5 177 Z " /><path fill="rgb(78,189,234)" stroke="rgb(78,189,234)" stroke-width="1" opacity="0.41568627450980394" d="M 938.5 177 L 944 177.5 L 938.5 178 L 938.5 177 Z " /><path fill="rgb(78,189,234)" stroke="rgb(78,189,234)" stroke-width="1" opacity="0.41568627450980394" d="M 756.5 183 L 760 194 Q 766.5 194.9 770 199.5 L 774.5 210 L 781.5 212 L 783.5 208 L 784 210.5 L 783 213 L 773 211 Q 772 203.2 767.5 198 L 759 193.5 L 756 185.5 L 756.5 183 Z " /><path fill="rgb(78,189,234)" stroke="rgb(78,189,234)" stroke-width="1" opacity="0.41568627450980394" d="M 776.5 183 Q 778.1 190.4 783.5 194 L 786 195.5 L 787 201.5 L 784.5 207 L 784 205.5 Q 786.7 203.2 786 197.5 L 778 189.5 Q 775 187 776.5 183 Z " /><path fill="rgb(78,189,234)" stroke="rgb(78,189,234)" stroke-width="1" opacity="0.41568627450980394" d="M 465.5 184 L 466 186.5 L 456 197.5 L 456 201.5 L 460.5 212 L 469 210 L 470 203.5 L 474.5 197 L 483.5 192 L 481.5 195 Q 475 196.5 472 201.5 L 471 207.5 L 468.5 211 L 459.5 214 L 455 201.5 L 455 197.5 Q 462 192.6 465.5 184 Z " /><path fill="rgb(78,189,234)" stroke="rgb(78,189,234)" stroke-width="1" opacity="0.41568627450980394" d="M 748 188 Q 751 186.8 750 190.5 L 748 190.5 L 744.5 200 L 744 197.5 L 748 188 Z " /><path fill="rgb(78,189,234)" stroke="rgb(78,189,234)" stroke-width="1" opacity="0.41568627450980394" d="M 493.5 189 Q 500.2 196.8 500 211.5 L 499 211.5 L 499 205.5 L 497 197.5 L 493.5 191 Q 492.6 198.6 487.5 202 Q 481.6 202.6 479 206.5 L 478.5 211 L 478 206.5 L 479 204 Q 485.9 203.1 490 198.5 L 493.5 189 Z " /><path fill="rgb(78,189,234)" stroke="rgb(78,189,234)" stroke-width="1" opacity="0.41568627450980394" d="M 750.5 192 Q 751 198.5 755.5 201 L 763 204 L 765 212.5 L 768.5 217 L 784 222 Q 787.1 225.6 786 234.5 L 785 235.5 L 784.5 251 L 784 235.5 L 785 234.5 L 785 226.5 L 781.5 222 L 770.5 219 L 765 214.5 L 763 206.5 L 759.5 203 Q 753.2 202.4 751 197.5 L 750.5 192 Z " /><path fill="rgb(78,189,234)" stroke="rgb(78,189,234)" stroke-width="1" opacity="0.41568627450980394" d="M 736.5 196 L 737 198.5 L 735 204.5 L 734.5 227 L 734 204.5 L 736.5 196 Z " /><path fill="rgb(78,189,234)" stroke="rgb(78,189,234)" stroke-width="1" opacity="0.41568627450980394" d="M 379.5 197 L 380 198.5 L 376.5 209 L 376 205.5 L 379.5 197 Z " /><path fill="rgb(78,189,234)" stroke="rgb(78,189,234)" stroke-width="1" opacity="0.41568627450980394" d="M 388.5 197 L 389 198.5 L 385.5 206 L 385 204.5 L 388.5 197 Z " /><path fill="rgb(78,189,234)" stroke="rgb(78,189,234)" stroke-width="1" opacity="0.41568627450980394" d="M 743.5 201 L 744 205.5 L 743 206.5 L 743 224.5 L 744 229.5 L 743 229.5 L 742 224.5 L 742 206.5 L 743.5 201 Z " /><path fill="rgb(78,189,234)" stroke="rgb(78,189,234)" stroke-width="1" opacity="0.41568627450980394" d="M 855.5 201 Q 858.8 205.8 859 213.5 L 858 213.5 L 855.5 201 Z " /><path fill="rgb(78,189,234)" stroke="rgb(78,189,234)" stroke-width="1" opacity="0.41568627450980394" d="M 794.5 202 L 795 204.5 L 790.5 217 L 790 213.5 L 794.5 202 Z " /><path fill="rgb(78,189,234)" stroke="rgb(78,189,234)" stroke-width="1" opacity="0.41568627450980394" d="M 507.5 204 L 508 211.5 L 507 211.5 L 507.5 204 Z " /><path fill="rgb(78,189,234)" stroke="rgb(78,189,234)" stroke-width="1" opacity="0.41568627450980394" d="M 865.5 205 L 868 212.5 L 868 218.5 L 867 218.5 L 867 212.5 L 865.5 205 Z " /><path fill="rgb(78,189,234)" stroke="rgb(78,189,234)" stroke-width="1" opacity="0.41568627450980394" d="M 384.5 207 L 385 210.5 L 383.5 216 L 383 210.5 L 384.5 207 Z " /><path fill="rgb(78,189,234)" stroke="rgb(78,189,234)" stroke-width="1" opacity="0.41568627450980394" d="M 449.5 207 Q 452.4 211.2 451 219.5 L 449.5 224 L 449 220.5 L 450 219.5 L 450 210.5 L 449.5 207 Z " /><path fill="rgb(78,189,234)" stroke="rgb(78,189,234)" stroke-width="1" opacity="0.41568627450980394" d="M 375.5 210 L 376 213.5 L 375 213.5 L 375.5 210 Z " /><path fill="rgb(78,189,234)" stroke="rgb(78,189,234)" stroke-width="1" opacity="0.41568627450980394" d="M 477.5 212 L 478 213.5 L 475.5 217 L 469.5 219 L 469.5 218 L 476 216 L 477.5 212 Z " /><path fill="rgb(78,189,234)" stroke="rgb(78,189,234)" stroke-width="1" opacity="0.41568627450980394" d="M 508.5 213 L 509 218.5 L 508 219.5 L 507.5 228 L 507 219.5 L 508.5 213 Z " /><path fill="rgb(78,189,234)" stroke="rgb(78,189,234)" stroke-width="1" opacity="0.41568627450980394" d="M 374.5 215 L 375 221.5 L 374 221.5 L 374.5 215 Z " /><path fill="rgb(78,189,234)" stroke="rgb(78,189,234)" stroke-width="1" opacity="0.41568627450980394" d="M 859.5 215 L 860 221.5 L 859 221.5 L 859.5 215 Z " /><path fill="rgb(78,189,234)" stroke="rgb(78,189,234)" stroke-width="1" opacity="0.41568627450980394" d="M 382.5 217 L 383 223.5 L 382 223.5 L 382.5 217 Z " /><path fill="rgb(78,189,234)" stroke="rgb(78,189,234)" stroke-width="1" opacity="0.41568627450980394" d="M 791.5 218 Q 795.9 225.1 794 238.5 Q 791.2 240.3 793 246.5 L 795 255.5 L 799 263.5 L 804.5 269 L 817.5 265 L 821.5 265 L 826.5 266 L 834.5 271 Q 844 267 849 258.5 Q 858.7 248.2 859.5 229 L 860 237.5 Q 855.9 255.9 843.5 266 L 834.5 272 Q 829 264.5 813.5 267 L 807.5 270 L 804.5 270 Q 791.2 261.3 792 238.5 L 793 237.5 L 793 224.5 Q 790 222 791.5 218 Z " /><path fill="rgb(78,189,234)" stroke="rgb(78,189,234)" stroke-width="1" opacity="0.41568627450980394" d="M 465.5 219 L 468 219.5 Q 461.3 220.3 458 224.5 L 457 231.5 L 458 232.5 L 458 251.5 L 455 261.5 L 447 275 L 449 275.5 L 446.5 276 L 445 273.5 Q 452.7 266.7 456 255.5 L 457 251.5 L 457 232.5 Q 454.8 231.3 456 226.5 L 458 222 L 465.5 219 Z " /><path fill="rgb(78,189,234)" stroke="rgb(78,189,234)" stroke-width="1" opacity="0.41568627450980394" d="M 499.5 219 L 500 225.5 L 493 247.5 L 479.5 264 L 464.5 273 L 457.5 275 L 450.5 275 L 450.5 274 Q 464.4 273.9 472.5 268 L 488 253.5 Q 497.8 240.3 499.5 219 Z " /><path fill="rgb(78,189,234)" stroke="rgb(78,189,234)" stroke-width="1" opacity="0.41568627450980394" d="M 868.5 220 L 869 232.5 L 868 232.5 L 868.5 220 Z " /><path fill="rgb(78,189,234)" stroke="rgb(78,189,234)" stroke-width="1" opacity="0.41568627450980394" d="M 860.5 224 L 861 227.5 L 860 227.5 L 860.5 224 Z " /><path fill="rgb(78,189,234)" stroke="rgb(78,189,234)" stroke-width="1" opacity="0.41568627450980394" d="M 448.5 225 L 449 234.5 L 448 234.5 L 448.5 225 Z " /><path fill="rgb(78,189,234)" stroke="rgb(78,189,234)" stroke-width="1" opacity="0.41568627450980394" d="M 382.5 228 L 383 235.5 L 386 246.5 Q 391.2 258.3 400.5 266 L 406.5 270 L 409.5 270 L 413.5 267 L 422.5 265 L 438.5 269 Q 450.5 259 449.5 236 L 450 249.5 Q 447.7 263.2 438.5 270 L 428.5 267 L 416.5 267 L 409.5 271 L 406.5 271 L 392 258.5 L 383 240.5 L 382.5 228 Z " /><path fill="rgb(78,189,234)" stroke="rgb(78,189,234)" stroke-width="1" opacity="0.41568627450980394" d="M 735.5 228 L 738 239.5 L 737 239.5 L 735 232.5 L 735.5 228 Z " /><path fill="rgb(78,189,234)" stroke="rgb(78,189,234)" stroke-width="1" opacity="0.41568627450980394" d="M 374.5 229 L 375 236.5 L 374 236.5 L 374.5 229 Z " /><path fill="rgb(78,189,234)" stroke="rgb(78,189,234)" stroke-width="1" opacity="0.41568627450980394" d="M 506.5 229 L 507 232.5 L 506 232.5 L 506.5 229 Z " /><path fill="rgb(78,189,234)" stroke="rgb(78,189,234)" stroke-width="1" opacity="0.41568627450980394" d="M 744.5 231 L 745 233.5 L 744 233.5 L 744.5 231 Z " /><path fill="rgb(78,189,234)" stroke="rgb(78,189,234)" stroke-width="1" opacity="0.41568627450980394" d="M 505.5 234 L 506 236.5 L 505 236.5 L 505.5 234 Z " /><path fill="rgb(78,189,234)" stroke="rgb(78,189,234)" stroke-width="1" opacity="0.41568627450980394" d="M 867.5 234 L 868 239.5 Q 862.5 262 846.5 274 L 840 278.5 L 841 284.5 Q 839.4 294.4 834.5 301 L 835 299.5 L 839 289.5 L 839 278.5 L 841.5 276 L 856 263.5 Q 865.4 252.4 867.5 234 Z " /><path fill="rgb(78,189,234)" stroke="rgb(78,189,234)" stroke-width="1" opacity="0.41568627450980394" d="M 745.5 235 Q 749.9 251.1 760.5 261 Q 772 273.5 795.5 274 L 793 270.5 L 786 258.5 L 785 252.5 L 786 252.5 Q 788.4 266.6 798 273.5 L 796.5 275 L 786.5 275 Q 766.3 270.3 755 256.5 L 746 240.5 L 745.5 235 Z " /><path fill="rgb(78,189,234)" stroke="rgb(78,189,234)" stroke-width="1" opacity="0.41568627450980394" d="M 375.5 238 L 376 241.5 L 375 241.5 L 375.5 238 Z " /><path fill="rgb(78,189,234)" stroke="rgb(78,189,234)" stroke-width="1" opacity="0.41568627450980394" d="M 504.5 238 L 505 240.5 Q 499.4 256.4 488.5 267 L 485.5 269 Q 472.4 282.7 448 284 L 447.5 286 L 447 283 Q 479.4 280.6 494 259.5 Q 500.8 250.3 504.5 238 Z " /><path fill="rgb(78,189,234)" stroke="rgb(78,189,234)" stroke-width="1" opacity="0.41568627450980394" d="M 738.5 241 Q 745 260 759.5 271 L 771.5 278 L 784.5 282 Q 791.5 281.3 795 283 L 789.5 306 L 789 303.5 L 794 284 L 791.5 283 L 780.5 282 L 765.5 276 Q 754.5 269.5 747 259.5 L 739 245.5 L 738.5 241 Z " /><path fill="rgb(78,189,234)" stroke="rgb(78,189,234)" stroke-width="1" opacity="0.41568627450980394" d="M 376.5 243 L 378 247.5 L 377 247.5 L 376.5 243 Z " /><path fill="rgb(78,189,234)" stroke="rgb(78,189,234)" stroke-width="1" opacity="0.41568627450980394" d="M 625.5 245 L 629.5 245 L 647.5 261 L 667.5 251 L 674 256.5 L 684.5 272 L 698.5 268 L 708.5 267 L 711 269.5 L 718 286.5 L 721.5 291 L 725.5 290 L 745.5 290 L 748 293.5 L 749 301.5 L 748 301.5 L 747 293.5 L 744.5 291 L 725.5 291 L 720.5 292 L 710 269 L 703.5 268 L 684.5 273 L 669.5 253 L 664.5 253 L 645.5 262 L 630.5 247 L 625.5 246 L 611.5 258 L 606.5 260 L 586.5 249 L 582 252.5 L 570.5 268 L 552.5 262 L 547.5 262 L 536.5 283 L 514.5 280 L 511 284.5 L 506 304 L 482.5 305 L 480 307.5 L 480 323.5 L 479 324.5 L 479 332 L 476.5 332 Q 468.4 321.6 455 316.5 L 448 287.5 L 449 287.5 L 456 317 Q 469.5 320.8 477.5 331 L 479 322.5 L 479 307.5 L 481.5 304 L 505 303 L 512 280 Q 514.1 278.4 519.5 279 L 535.5 282 L 544 264.5 L 547.5 261 L 553.5 261 L 569.5 267 L 584.5 249 L 587.5 248 L 602.5 257 L 608.5 259 L 625.5 245 Z " /><path fill="rgb(78,189,234)" stroke="rgb(78,189,234)" stroke-width="1" opacity="0.41568627450980394" d="M 378.5 249 Q 384.5 265 397.5 274 L 401 276.5 L 398.5 275 L 388 266.5 Q 380.8 259.3 378.5 249 Z " /><path fill="rgb(78,189,234)" stroke="rgb(78,189,234)" stroke-width="1" opacity="0.41568627450980394" d="M 626.5 254 L 643.5 270 L 647.5 270 L 666.5 261 L 681.5 281 L 696.5 278 L 696.5 279 L 681.5 282 L 679 281 L 666.5 262 L 648.5 271 L 643.5 271 L 630.5 258 L 629 258 L 627.5 255 L 613.5 267 L 606.5 270 L 588.5 259 L 574.5 276 L 569.5 277 L 563 274.5 L 565.5 274 L 572.5 276 L 576 273.5 L 587.5 258 L 608.5 269 L 626.5 254 Z " /><path fill="rgb(78,189,234)" stroke="rgb(78,189,234)" stroke-width="1" opacity="0.41568627450980394" d="M 551.5 270 L 562 273.5 L 560.5 274 L 552.5 271 L 542 291 L 519.5 289 L 515.5 299 L 515 296.5 L 518 288 L 540.5 290 L 543 287.5 L 551.5 270 Z " /><path fill="rgb(78,189,234)" stroke="rgb(78,189,234)" stroke-width="1" opacity="0.41568627450980394" d="M 418.5 274 L 426.5 274 L 437 279.5 L 441 290.5 L 440 290.5 L 437 281.5 L 433.5 278 Q 428.7 273.8 418.5 275 L 412 279.5 L 411 284.5 Q 418.9 308.6 436.5 323 L 440.5 325 L 447 319.5 L 446 310.5 L 447 310.5 L 448 319.5 L 441.5 326 L 439.5 326 L 424 311.5 L 412 291.5 L 410 281.5 L 415.5 275 L 418.5 274 Z " /><path fill="rgb(78,189,234)" stroke="rgb(78,189,234)" stroke-width="1" opacity="0.41568627450980394" d="M 816.5 274 Q 828 273 832 279.5 L 831.5 282 L 831 279 L 823.5 275 L 816.5 275 Q 808.8 276.9 805 282.5 L 804.5 284 L 804 282.5 L 807.5 278 L 816.5 274 Z " /><path fill="rgb(78,189,234)" stroke="rgb(78,189,234)" stroke-width="1" opacity="0.41568627450980394" d="M 701.5 276 Q 705.9 274.5 705 277.5 L 714 296.5 L 716.5 299 L 731.5 299 L 732.5 298 L 740 298 L 745 319.5 L 761 338.5 L 777 371.5 L 776 371.5 Q 765.1 340.4 744 319.5 L 740 300.5 L 738.5 299 L 716.5 300 L 714 299 L 703.5 277 L 698.5 278 L 698.5 277 L 701.5 276 Z " /><path fill="rgb(78,189,234)" stroke="rgb(78,189,234)" stroke-width="1" opacity="0.41568627450980394" d="M 402.5 277 L 404 280.5 L 402.5 285 L 402 281.5 L 403 278.5 L 402.5 277 Z " /><path fill="rgb(78,189,234)" stroke="rgb(78,189,234)" stroke-width="1" opacity="0.41568627450980394" d="M 831.5 284 L 832 287.5 Q 823.3 310.8 805.5 325 L 801.5 326 L 795 320.5 L 795.5 319 Q 797.7 323.8 803.5 325 L 815 314.5 Q 826.4 302.4 831.5 284 Z " /><path fill="rgb(78,189,234)" stroke="rgb(78,189,234)" stroke-width="1" opacity="0.41568627450980394" d="M 802.5 287 L 803 289.5 L 799.5 300 L 799 297.5 L 802.5 287 Z " /><path fill="rgb(78,189,234)" stroke="rgb(78,189,234)" stroke-width="1" opacity="0.41568627450980394" d="M 403.5 288 L 410 302.5 L 408 301.5 Q 403.3 295.9 403.5 288 Z " /><path fill="rgb(78,189,234)" stroke="rgb(78,189,234)" stroke-width="1" opacity="0.41568627450980394" d="M 441.5 292 L 445 304.5 L 444 304.5 L 441.5 292 Z " /><path fill="rgb(78,189,234)" stroke="rgb(78,189,234)" stroke-width="1" opacity="0.41568627450980394" d="M 514.5 300 L 515 301.5 L 513 308.5 L 509.5 312 L 507 311.5 L 512 308.5 L 514.5 300 Z " /><path fill="rgb(78,189,234)" stroke="rgb(78,189,234)" stroke-width="1" opacity="0.41568627450980394" d="M 798.5 301 L 799 303.5 L 798 303.5 L 798.5 301 Z " /><path fill="rgb(78,189,234)" stroke="rgb(78,189,234)" stroke-width="1" opacity="0.41568627450980394" d="M 833.5 302 L 833 303.5 Q 826.8 316.8 816.5 326 L 807 333.5 Q 807.8 339.8 805 342.5 L 792.5 355 L 782 362.5 L 783 365 L 799 367.5 L 794.5 368 L 793.5 367 L 784.5 367 L 782 364.5 L 781 361.5 Q 794.1 354.6 803 343.5 L 806 338.5 Q 804.5 332.5 807.5 331 L 810.5 330 L 824 316.5 L 833.5 302 Z " /><path fill="rgb(78,189,234)" stroke="rgb(78,189,234)" stroke-width="1" opacity="0.41568627450980394" d="M 749.5 303 L 752 315.5 L 764 329.5 L 761 327.5 L 751 315.5 L 749.5 303 Z " /><path fill="rgb(78,189,234)" stroke="rgb(78,189,234)" stroke-width="1" opacity="0.41568627450980394" d="M 410.5 304 L 427.5 326 L 437 333.5 L 436.5 337 L 434.5 332 L 423 322.5 L 411 306.5 L 410.5 304 Z " /><path fill="rgb(78,189,234)" stroke="rgb(78,189,234)" stroke-width="1" opacity="0.41568627450980394" d="M 797.5 305 L 798 308.5 L 795.5 318 L 795 313.5 L 797.5 305 Z " /><path fill="rgb(78,189,234)" stroke="rgb(78,189,234)" stroke-width="1" opacity="0.41568627450980394" d="M 445.5 306 L 446 308.5 L 445 308.5 L 445.5 306 Z " /><path fill="rgb(78,189,234)" stroke="rgb(78,189,234)" stroke-width="1" opacity="0.41568627450980394" d="M 788.5 307 L 789 310.5 L 787 318 L 777.5 322 L 766.5 332 L 764.5 332 L 764.5 331 L 766.5 331 L 780.5 319 L 786 317 L 788.5 307 Z " /><path fill="rgb(78,189,234)" stroke="rgb(78,189,234)" stroke-width="1" opacity="0.41568627450980394" d="M 488.5 312 L 505 312.5 L 489.5 313 L 488 314.5 L 488 331.5 L 483.5 339 L 484 337.5 L 487 331.5 L 487 313.5 L 488.5 312 Z " /><path fill="rgb(78,189,234)" stroke="rgb(78,189,234)" stroke-width="1" opacity="0.41568627450980394" d="M 453.5 325 L 457 325.5 Q 449.9 325.9 447 330.5 L 445 336.5 L 452.5 345 L 463.5 353 L 466 353 L 472 341.5 L 472 338.5 L 458 326.5 L 459.5 326 L 473 338.5 L 473 341.5 L 465.5 354 Q 452 348.5 444 337.5 Q 444.5 330 449.5 327 L 453.5 325 Z " /><path fill="rgb(78,189,234)" stroke="rgb(78,189,234)" stroke-width="1" opacity="0.41568627450980394" d="M 787.5 325 L 786.5 327 Q 776.9 330.9 771 338.5 L 776 350.5 L 778.5 353 L 794 341.5 L 798 334.5 L 796 330 L 789 326.5 L 791.5 326 L 797 330.5 L 799 335.5 Q 796 343 789.5 347 L 777.5 354 L 770 338.5 Q 776.8 329.8 787.5 325 Z " /><path fill="rgb(78,189,234)" stroke="rgb(78,189,234)" stroke-width="1" opacity="0.41568627450980394" d="M 573.5 337 Q 586.7 336.8 592 344.5 L 597 354.5 L 596 354.5 Q 593.5 345.4 586.5 341 Q 582.4 337.1 573.5 338 L 561 344 L 555.5 355 L 555 352.5 L 563.5 341 L 573.5 337 Z " /><path fill="rgb(78,189,234)" stroke="rgb(78,189,234)" stroke-width="1" opacity="0.41568627450980394" d="M 663.5 337 Q 676.9 336.6 682 344.5 Q 689 351.5 689 365.5 Q 687 376 680.5 382 L 670.5 387 L 662.5 387 L 659 385.5 L 661.5 385 L 662.5 386 L 670.5 386 Q 679.5 383.5 684 376.5 L 687 370.5 L 688 360.5 L 684 348.5 L 676.5 341 Q 672.4 337.1 663.5 338 Q 653.5 340 649 347.5 Q 644.7 352.2 644.5 361 L 644 355.5 Q 646.5 347 652.5 342 L 663.5 337 Z " /><path fill="rgb(78,189,234)" stroke="rgb(78,189,234)" stroke-width="1" opacity="0.41568627450980394" d="M 482.5 340 L 482 341.5 L 468.5 368 L 468 366.5 L 482.5 340 Z " /><path fill="rgb(78,189,234)" stroke="rgb(78,189,234)" stroke-width="1" opacity="0.41568627450980394" d="M 438.5 341 L 449.5 353 L 459 359.5 L 457.5 359 Q 446.3 353.2 439 343.5 L 438.5 341 Z " /><path fill="rgb(78,189,234)" stroke="rgb(78,189,234)" stroke-width="1" opacity="0.41568627450980394" d="M 566.5 347 Q 574.5 345.5 576 350.5 Q 578.7 352.8 578 358.5 L 573.5 365 L 567.5 366 L 563 362.5 Q 560.7 359.3 562 352.5 L 566.5 347 Z M 567 348 Q 561 351 563 361 L 569 365 L 574 364 L 577 359 Q 578 353 575 351 Q 574 347 567 348 Z " /><path fill="rgb(78,189,234)" stroke="rgb(78,189,234)" stroke-width="1" opacity="0.41568627450980394" d="M 656.5 347 Q 664.5 345.5 666 350.5 Q 668.7 352.8 668 358.5 L 663.5 365 L 657.5 366 L 652 361.5 L 651 355.5 L 652 351.5 L 656.5 347 Z M 657 348 L 652 356 L 654 363 Q 656 366 662 365 L 667 359 Q 668 353 665 351 Q 664 347 657 348 Z " /><path fill="rgb(78,189,234)" stroke="rgb(78,189,234)" stroke-width="1" opacity="0.41568627450980394" d="M 554.5 356 Q 553.3 374.7 563.5 382 Q 568.8 387.2 580 386.5 L 571.5 387 Q 562.4 384.5 558 377.5 Q 551.8 370.3 554.5 356 Z " /><path fill="rgb(78,189,234)" stroke="rgb(78,189,234)" stroke-width="1" opacity="0.41568627450980394" d="M 597.5 356 L 599 363.5 L 594 377.5 L 587.5 384 L 581.5 386 L 581.5 385 Q 588.9 383.9 592 378.5 L 597 368.5 L 597.5 356 Z " /><path fill="rgb(78,189,234)" stroke="rgb(78,189,234)" stroke-width="1" opacity="0.41568627450980394" d="M 460.5 360 L 462 363.5 L 461 366 L 458.5 367 L 444.5 368 L 431 373 L 428 379.5 Q 418.9 386.9 413 397.5 L 407.5 409 L 407 407.5 Q 413.4 391.9 424.5 381 L 427 379.5 L 427 377.5 L 431.5 372 Q 441.2 365.7 457.5 366 L 461 363.5 L 460.5 360 Z " /><path fill="rgb(78,189,234)" stroke="rgb(78,189,234)" stroke-width="1" opacity="0.41568627450980394" d="M 644.5 364 Q 645.6 376.4 653.5 382 L 658 384.5 L 656.5 385 L 648 377.5 L 644 368.5 L 644.5 364 Z " /><path fill="rgb(78,189,234)" stroke="rgb(78,189,234)" stroke-width="1" opacity="0.41568627450980394" d="M 800.5 368 Q 811.8 368.2 816 375.5 L 817 378.5 L 826 387.5 L 838 408.5 L 844 425.5 L 845 435.5 L 844 435.5 Q 839.2 401.3 819.5 382 L 816 379.5 L 816 377.5 L 811.5 372 Q 807.5 369 800.5 369 L 800.5 368 Z " /><path fill="rgb(78,189,234)" stroke="rgb(78,189,234)" stroke-width="1" opacity="0.41568627450980394" d="M 467.5 369 L 468 370.5 Q 464.1 374.6 465 383.5 Q 466.7 391.8 472.5 396 L 484.5 405 L 512.5 418 L 535.5 425 L 570 431.5 L 564.5 432 L 531.5 425 L 507.5 417 L 484.5 406 L 468 392.5 Q 463.3 387.7 464 377.5 L 467.5 369 Z " /><path fill="rgb(78,189,234)" stroke="rgb(78,189,234)" stroke-width="1" opacity="0.41568627450980394" d="M 777.5 373 Q 780.4 377.2 779 385.5 Q 775.4 394.9 767.5 400 L 750.5 411 L 736.5 417 L 700.5 428 L 673.5 433 L 656.5 434 L 655.5 435 L 643.5 435 L 642.5 436 L 603.5 436 L 603.5 435 L 642.5 435 L 643.5 434 L 673.5 432 L 700.5 427 L 722.5 421 L 743.5 413 Q 761.8 405.8 774 392.5 Q 779.6 388.1 778 376.5 L 777.5 373 Z " /><path fill="rgb(78,189,234)" stroke="rgb(78,189,234)" stroke-width="1" opacity="0.41568627450980394" d="M 450.5 374 L 457.5 374 L 458 376.5 L 456.5 385 L 456 377.5 L 457 375 L 445.5 376 L 438 379.5 L 444 389.5 L 443 389.5 L 436 379.5 L 438.5 377 L 450.5 374 Z " /><path fill="rgb(78,189,234)" stroke="rgb(78,189,234)" stroke-width="1" opacity="0.41568627450980394" d="M 786 374 L 802.5 376 L 808 379.5 Q 801.6 384.9 800 394 L 785 393 L 786.5 384 L 787 388.5 L 786 392 L 799 393 Q 800.4 384.2 807 379.5 L 802.5 377 L 787 375 L 786.5 381 L 786 374 Z " /><path fill="rgb(78,189,234)" stroke="rgb(78,189,234)" stroke-width="1" opacity="0.41568627450980394" d="M 457.5 386 L 459 393 L 445.5 394 L 444 391.5 L 445 391.5 L 445.5 393 L 453.5 393 L 458 392 L 457.5 386 Z " /><path fill="rgb(78,189,234)" stroke="rgb(78,189,234)" stroke-width="1" opacity="0.41568627450980394" d="M 812.5 386 L 819 391.5 Q 827.6 402.9 833 417.5 L 837 430.5 L 838 443 L 836.5 443 L 827 433.5 L 811 409.5 L 813 410.5 Q 821.6 428.4 835.5 441 Q 838.5 441.9 837 437.5 Q 831.8 406.7 814.5 388 Q 810.8 387.3 810 389.5 L 808.5 393 L 808 391.5 L 812.5 386 Z " /><path fill="rgb(78,189,234)" stroke="rgb(78,189,234)" stroke-width="1" opacity="0.41568627450980394" d="M 429.5 387 Q 435.3 386.3 436 390.5 L 437 393.5 L 436 393.5 L 432.5 388 L 430.5 388 L 425 393.5 Q 414.6 408.1 409.5 428 L 409 425.5 L 420 399.5 L 429.5 387 Z " /><path fill="rgb(78,189,234)" stroke="rgb(78,189,234)" stroke-width="1" opacity="0.41568627450980394" d="M 807.5 394 Q 807.6 402.4 811 407.5 L 810 407.5 L 807 399.5 L 807.5 394 Z " /><path fill="rgb(78,189,234)" stroke="rgb(78,189,234)" stroke-width="1" opacity="0.41568627450980394" d="M 437.5 395 L 438 398.5 L 437 398.5 L 437.5 395 Z " /><path fill="rgb(78,189,234)" stroke="rgb(78,189,234)" stroke-width="1" opacity="0.41568627450980394" d="M 594.5 396 L 599 398 L 600.5 401 Q 609.5 409.5 629.5 407 Q 638.4 404.9 644 399.5 L 645.5 397 L 649.5 396 L 653 398.5 Q 653.1 406.6 647.5 409 Q 642.4 413.9 633.5 415 L 633.5 414 Q 644.8 411.8 651 404.5 L 652 399.5 Q 651.5 396.5 647.5 397 Q 638.5 411 612.5 408 Q 601.3 404.7 594.5 397 L 591 399.5 L 591 402.5 L 593 406 L 607.5 414 L 617 415.5 L 611.5 416 Q 598.7 412.8 591 404.5 L 590 399.5 L 594.5 396 Z " /><path fill="rgb(78,189,234)" stroke="rgb(78,189,234)" stroke-width="1" opacity="0.41568627450980394" d="M 462.5 399 Q 465.8 397.9 465 400.5 Q 452.1 405.6 443 414.5 L 441.5 417 L 441 415.5 Q 448.7 405.7 462 401.5 L 455 400.5 L 462.5 399 Z " /><path fill="rgb(78,189,234)" stroke="rgb(78,189,234)" stroke-width="1" opacity="0.41568627450980394" d="M 779 399 L 790 400.5 L 783 401.5 Q 796.1 405.9 804 415.5 L 798.5 411 L 779 400.5 L 779 399 Z " /><path fill="rgb(78,189,234)" stroke="rgb(78,189,234)" stroke-width="1" opacity="0.41568627450980394" d="M 436.5 400 L 437 402.5 Q 426.5 426.5 408.5 443 L 407 442.5 L 407 434.5 L 408 434.5 L 408.5 441 Q 426.7 424.7 436.5 400 Z " /><path fill="rgb(78,189,234)" stroke="rgb(78,189,234)" stroke-width="1" opacity="0.41568627450980394" d="M 444 401 L 454 401.5 L 445.5 402 L 444 403.5 L 443 408.5 L 438 418.5 Q 428.2 435.2 414.5 448 L 408.5 452 L 403.5 452 Q 396.8 447.8 399 434.5 L 400 434.5 Q 398 445.5 402.5 450 L 408.5 451 L 419 442.5 L 437 418.5 L 444 401 Z " /><path fill="rgb(78,189,234)" stroke="rgb(78,189,234)" stroke-width="1" opacity="0.41568627450980394" d="M 791.5 401 L 799.5 401 L 801 402.5 L 802 407.5 L 808 419.5 Q 817.4 435.1 830.5 447 L 836.5 451 L 841.5 451 Q 846.1 446.6 845.5 437 L 846 444.5 L 845 448.5 L 841.5 452 Q 834.1 452.9 831.5 449 L 820 437.5 Q 806.1 423.1 800 402 L 791.5 402 L 791.5 401 Z " /><path fill="rgb(78,189,234)" stroke="rgb(78,189,234)" stroke-width="1" opacity="0.41568627450980394" d="M 472.5 406 L 489 416.5 L 487.5 419 L 465.5 430 L 460 430 L 454.5 423 L 449 419.5 L 451.5 416 L 463.5 410 L 463.5 411 Q 454.9 413.4 450 419.5 Q 457.9 422.2 461.5 429 L 464.5 429 Q 478.1 424.6 488 416.5 L 472.5 407 L 465.5 410 L 465.5 409 L 472.5 406 Z " /><path fill="rgb(78,189,234)" stroke="rgb(78,189,234)" stroke-width="1" opacity="0.41568627450980394" d="M 771.5 406 L 778 408.5 L 776.5 409 L 771.5 407 L 757 416.5 L 771.5 425 L 781.5 429 L 785 429 L 790.5 422 L 795 419.5 L 793.5 417 L 779 409.5 L 780.5 409 Q 790.4 412.6 797 419.5 L 787 426.5 L 784.5 430 Q 767 426 755 416.5 L 771.5 406 Z " /><path fill="rgb(78,189,234)" stroke="rgb(78,189,234)" stroke-width="1" opacity="0.41568627450980394" d="M 406.5 410 L 407 411.5 L 402.5 424 L 402 421.5 L 406.5 410 Z " /><path fill="rgb(78,189,234)" stroke="rgb(78,189,234)" stroke-width="1" opacity="0.41568627450980394" d="M 626.5 415 L 632 415.5 L 626.5 416 L 626.5 415 Z " /><path fill="rgb(78,189,234)" stroke="rgb(78,189,234)" stroke-width="1" opacity="0.41568627450980394" d="M 618.5 416 L 625 416.5 L 618.5 417 L 618.5 416 Z " /><path fill="rgb(78,189,234)" stroke="rgb(78,189,234)" stroke-width="1" opacity="0.41568627450980394" d="M 804.5 417 L 810 427.5 L 812 437.5 L 811 437.5 L 809 427.5 L 804 419.5 L 804.5 417 Z " /><path fill="rgb(78,189,234)" stroke="rgb(78,189,234)" stroke-width="1" opacity="0.41568627450980394" d="M 440.5 418 L 441 421.5 L 438 424.5 L 435.5 432 L 435 429.5 L 440 421.5 L 440.5 418 Z " /><path fill="rgb(78,189,234)" stroke="rgb(78,189,234)" stroke-width="1" opacity="0.41568627450980394" d="M 746.5 420 L 757 426.5 L 755.5 426 L 746.5 421 Q 743.5 422.5 746.5 424 Q 758.6 430.8 767 441.5 Q 770.7 445.8 769 455.5 L 768 455.5 L 768 445.5 Q 764.3 436.7 756.5 432 L 743 421.5 L 746.5 420 Z " /><path fill="rgb(78,189,234)" stroke="rgb(78,189,234)" stroke-width="1" opacity="0.41568627450980394" d="M 496.5 421 Q 501 420 502 422.5 L 481 440.5 L 478 445.5 L 477.5 456 L 477 445.5 L 479 441.5 L 491.5 429 L 500 424 Q 501.3 420.7 496.5 422 L 490.5 426 L 491.5 424 L 496.5 421 Z " /><path fill="rgb(78,189,234)" stroke="rgb(78,189,234)" stroke-width="1" opacity="0.41568627450980394" d="M 401.5 425 L 402 427.5 L 400.5 433 L 400 428.5 L 401.5 425 Z " /><path fill="rgb(78,189,234)" stroke="rgb(78,189,234)" stroke-width="1" opacity="0.41568627450980394" d="M 733.5 425 L 742 430.5 L 740.5 430 L 733.5 426 L 719 431.5 L 721 435 L 722.5 435 L 737.5 449 L 745.5 453 Q 750.6 448.2 759 448 Q 757.2 441.7 751.5 438 L 743 431.5 L 745.5 433 L 759 444.5 L 760 449 L 755.5 449 L 744.5 454 Q 729 445.5 718 432.5 Q 716.8 428.8 720.5 430 L 733.5 425 Z " /><path fill="rgb(78,189,234)" stroke="rgb(78,189,234)" stroke-width="1" opacity="0.41568627450980394" d="M 488.5 426 L 487.5 428 L 469.5 437 L 464 438 L 463.5 453 L 463 437 L 469.5 436 L 488.5 426 Z " /><path fill="rgb(78,189,234)" stroke="rgb(78,189,234)" stroke-width="1" opacity="0.41568627450980394" d="M 509.5 426 L 513.5 426 L 523 429.5 L 520.5 430 L 510.5 427 L 491 441 L 487 448 L 501.5 453 Q 515.1 445.6 525 434.5 L 526 431 L 524 430.5 L 526.5 430 Q 529.3 431.3 527 432.5 L 517.5 443 L 507.5 451 L 499.5 454 Q 494.8 449 486 449 Q 487.4 441.7 493.5 438 L 509.5 426 Z " /><path fill="rgb(78,189,234)" stroke="rgb(78,189,234)" stroke-width="1" opacity="0.41568627450980394" d="M 446.5 427 L 454 432.5 Q 458 439 456 451.5 L 454.5 459 L 454 452.5 L 455 451.5 L 455 437.5 L 450.5 430 L 446.5 428 L 443 433.5 L 441 443.5 L 440.5 456 L 440 443.5 L 442 433.5 L 446.5 427 Z " /><path fill="rgb(78,189,234)" stroke="rgb(78,189,234)" stroke-width="1" opacity="0.41568627450980394" d="M 758.5 427 L 783 438.5 L 783 455.5 L 784 460.5 L 783 460.5 L 782 438 L 773.5 436 L 759.5 429 L 758.5 427 Z " /><path fill="rgb(78,189,234)" stroke="rgb(78,189,234)" stroke-width="1" opacity="0.41568627450980394" d="M 798.5 427 Q 801.8 425.9 801 428.5 L 803 433.5 L 802 433.5 L 799.5 428 L 792 433.5 L 791 435.5 L 790.5 455 L 790 435.5 L 792 431 L 798.5 427 Z " /><path fill="rgb(78,189,234)" stroke="rgb(78,189,234)" stroke-width="1" opacity="0.41568627450980394" d="M 408.5 429 L 409 432.5 L 408 432.5 L 408.5 429 Z " /><path fill="rgb(78,189,234)" stroke="rgb(78,189,234)" stroke-width="1" opacity="0.41568627450980394" d="M 571.5 432 L 602 434.5 L 590.5 435 L 589.5 434 L 571.5 433 L 571.5 432 Z " /><path fill="rgb(78,189,234)" stroke="rgb(78,189,234)" stroke-width="1" opacity="0.41568627450980394" d="M 434.5 433 L 435 436.5 L 434 436.5 L 434.5 433 Z " /><path fill="rgb(78,189,234)" stroke="rgb(78,189,234)" stroke-width="1" opacity="0.41568627450980394" d="M 536.5 433 L 532 438.5 L 520.5 451 L 505.5 462 L 508.5 458 Q 521.7 450.7 531 439.5 L 536.5 433 Z " /><path fill="rgb(78,189,234)" stroke="rgb(78,189,234)" stroke-width="1" opacity="0.41568627450980394" d="M 707.5 433 Q 711.9 431.5 711 434.5 L 723.5 448 L 741 460 L 733 485.5 L 731.5 499 L 731 490.5 L 735 473.5 L 740 461.5 Q 724.2 451.3 712 437.5 L 709.5 434 Q 706.5 434.5 707.5 433 Z " /><path fill="rgb(78,189,234)" stroke="rgb(78,189,234)" stroke-width="1" opacity="0.41568627450980394" d="M 538.5 434 L 551 436.5 L 546.5 437 L 538.5 435 L 538.5 434 Z " /><path fill="rgb(78,189,234)" stroke="rgb(78,189,234)" stroke-width="1" opacity="0.41568627450980394" d="M 703.5 434 L 706 434.5 L 703.5 435 L 703.5 434 Z " /><path fill="rgb(78,189,234)" stroke="rgb(78,189,234)" stroke-width="1" opacity="0.41568627450980394" d="M 698.5 435 L 702 435.5 L 698.5 436 L 698.5 435 Z " /><path fill="rgb(78,189,234)" stroke="rgb(78,189,234)" stroke-width="1" opacity="0.41568627450980394" d="M 803.5 435 L 804 437.5 L 803 437.5 L 803.5 435 Z " /><path fill="rgb(78,189,234)" stroke="rgb(78,189,234)" stroke-width="1" opacity="0.41568627450980394" d="M 692.5 436 L 697 436.5 L 682.5 439 L 682.5 438 L 692.5 436 Z " /><path fill="rgb(78,189,234)" stroke="rgb(78,189,234)" stroke-width="1" opacity="0.41568627450980394" d="M 552.5 437 L 556 437.5 L 552.5 438 L 552.5 437 Z " /><path fill="rgb(78,189,234)" stroke="rgb(78,189,234)" stroke-width="1" opacity="0.41568627450980394" d="M 433.5 438 L 434 444.5 L 433 444.5 L 433.5 438 Z " /><path fill="rgb(78,189,234)" stroke="rgb(78,189,234)" stroke-width="1" opacity="0.41568627450980394" d="M 557.5 438 L 562 438.5 L 557.5 439 L 557.5 438 Z " /><path fill="rgb(78,189,234)" stroke="rgb(78,189,234)" stroke-width="1" opacity="0.41568627450980394" d="M 563.5 439 L 568 439.5 L 563.5 440 L 563.5 439 Z " /><path fill="rgb(78,189,234)" stroke="rgb(78,189,234)" stroke-width="1" opacity="0.41568627450980394" d="M 676.5 439 L 681 439.5 L 676.5 440 L 676.5 439 Z " /><path fill="rgb(78,189,234)" stroke="rgb(78,189,234)" stroke-width="1" opacity="0.41568627450980394" d="M 804.5 439 L 805 445.5 L 804 445.5 L 804.5 439 Z " /><path fill="rgb(78,189,234)" stroke="rgb(78,189,234)" stroke-width="1" opacity="0.41568627450980394" d="M 812.5 439 L 813 444.5 L 812 444.5 L 812.5 439 Z " /><path fill="rgb(78,189,234)" stroke="rgb(78,189,234)" stroke-width="1" opacity="0.41568627450980394" d="M 570.5 440 L 576 440.5 L 570.5 441 L 570.5 440 Z " /><path fill="rgb(78,189,234)" stroke="rgb(78,189,234)" stroke-width="1" opacity="0.41568627450980394" d="M 668.5 440 L 674 440.5 L 668.5 441 L 668.5 440 Z " /><path fill="rgb(78,189,234)" stroke="rgb(78,189,234)" stroke-width="1" opacity="0.41568627450980394" d="M 579.5 441 L 585 441.5 L 579.5 442 L 579.5 441 Z " /><path fill="rgb(78,189,234)" stroke="rgb(78,189,234)" stroke-width="1" opacity="0.41568627450980394" d="M 660.5 441 L 666 441.5 L 660.5 442 L 660.5 441 Z " /><path fill="rgb(78,189,234)" stroke="rgb(78,189,234)" stroke-width="1" opacity="0.41568627450980394" d="M 588.5 442 L 598.5 442 L 599.5 443 L 645.5 443 L 646.5 442 L 656.5 442 L 656.5 443 L 646.5 443 L 645.5 444 L 599.5 444 L 598.5 443 L 588.5 443 L 588.5 442 Z " /><path fill="rgb(78,189,234)" stroke="rgb(78,189,234)" stroke-width="1" opacity="0.41568627450980394" d="M 432.5 446 L 433 469.5 L 432 469.5 L 432.5 446 Z " /><path fill="rgb(78,189,234)" stroke="rgb(78,189,234)" stroke-width="1" opacity="0.41568627450980394" d="M 813.5 446 L 814 469.5 L 813 469.5 L 813.5 446 Z " /><path fill="rgb(78,189,234)" stroke="rgb(78,189,234)" stroke-width="1" opacity="0.41568627450980394" d="M 805.5 447 L 806 468.5 L 805 468.5 L 805.5 447 Z " /><path fill="rgb(78,189,234)" stroke="rgb(78,189,234)" stroke-width="1" opacity="0.41568627450980394" d="M 462.5 454 L 463 460.5 L 460.5 470 L 460 466.5 L 462.5 454 Z " /><path fill="rgb(78,189,234)" stroke="rgb(78,189,234)" stroke-width="1" opacity="0.41568627450980394" d="M 758.5 456 L 762 458.5 L 761.5 466 L 761 458 L 758.5 457 Q 752 458.5 749 463.5 L 745 471.5 L 742 482.5 L 739 509 L 742 507.5 Q 756 492 760.5 467 L 761 470.5 Q 755.4 495.9 739.5 511 L 738 510.5 L 738 502.5 L 743 474.5 L 749 461.5 L 751.5 459 L 758.5 456 Z " /><path fill="rgb(78,189,234)" stroke="rgb(78,189,234)" stroke-width="1" opacity="0.41568627450980394" d="M 791.5 456 L 792 459.5 L 791 459.5 L 791.5 456 Z " /><path fill="rgb(78,189,234)" stroke="rgb(78,189,234)" stroke-width="1" opacity="0.41568627450980394" d="M 476.5 457 L 477 464.5 L 476 464.5 L 476.5 457 Z " /><path fill="rgb(78,189,234)" stroke="rgb(78,189,234)" stroke-width="1" opacity="0.41568627450980394" d="M 485.5 457 L 486 459.5 L 485 461.5 Q 487.5 463 486 468.5 L 485 468.5 L 484 460.5 L 485.5 457 Z " /><path fill="rgb(78,189,234)" stroke="rgb(78,189,234)" stroke-width="1" opacity="0.41568627450980394" d="M 487.5 457 Q 495 457.5 498 462.5 L 504 479.5 L 503 479.5 Q 501.3 467.3 494.5 460 L 487.5 458 L 487.5 457 Z " /><path fill="rgb(78,189,234)" stroke="rgb(78,189,234)" stroke-width="1" opacity="0.41568627450980394" d="M 769.5 457 L 770 466.5 L 769 466.5 L 769.5 457 Z " /><path fill="rgb(78,189,234)" stroke="rgb(78,189,234)" stroke-width="1" opacity="0.41568627450980394" d="M 440.5 459 L 441 469.5 L 440 469.5 L 440.5 459 Z " /><path fill="rgb(78,189,234)" stroke="rgb(78,189,234)" stroke-width="1" opacity="0.41568627450980394" d="M 453.5 460 L 454 464.5 L 447 488 L 444 486.5 L 443 482.5 L 444 482.5 L 445.5 487 L 449 479.5 L 453.5 460 Z " /><path fill="rgb(78,189,234)" stroke="rgb(78,189,234)" stroke-width="1" opacity="0.41568627450980394" d="M 792.5 461 L 795 472.5 L 794 472.5 L 792.5 461 Z " /><path fill="rgb(78,189,234)" stroke="rgb(78,189,234)" stroke-width="1" opacity="0.41568627450980394" d="M 784.5 462 L 785 465.5 L 784 465.5 L 784.5 462 Z " /><path fill="rgb(78,189,234)" stroke="rgb(78,189,234)" stroke-width="1" opacity="0.41568627450980394" d="M 507.5 465 Q 512.8 474.7 514 488.5 L 513 488.5 L 511 476.5 L 507.5 465 Z " /><path fill="rgb(78,189,234)" stroke="rgb(78,189,234)" stroke-width="1" opacity="0.41568627450980394" d="M 477.5 466 L 479 474.5 L 478 474.5 L 477.5 466 Z " /><path fill="rgb(78,189,234)" stroke="rgb(78,189,234)" stroke-width="1" opacity="0.41568627450980394" d="M 785.5 467 L 786 470.5 L 785 470.5 L 785.5 467 Z " /><path fill="rgb(78,189,234)" stroke="rgb(78,189,234)" stroke-width="1" opacity="0.41568627450980394" d="M 768.5 468 L 769 471.5 L 768 471.5 L 768.5 468 Z " /><path fill="rgb(78,189,234)" stroke="rgb(78,189,234)" stroke-width="1" opacity="0.41568627450980394" d="M 486.5 470 L 488 476.5 L 487 476.5 L 486.5 470 Z " /><path fill="rgb(78,189,234)" stroke="rgb(78,189,234)" stroke-width="1" opacity="0.41568627450980394" d="M 804.5 470 L 805 476.5 L 804 476.5 L 804.5 470 Z " /><path fill="rgb(78,189,234)" stroke="rgb(78,189,234)" stroke-width="1" opacity="0.41568627450980394" d="M 433.5 471 L 434 476.5 L 433 476.5 L 433.5 471 Z " /><path fill="rgb(78,189,234)" stroke="rgb(78,189,234)" stroke-width="1" opacity="0.41568627450980394" d="M 441.5 471 L 443 480.5 L 442 480.5 L 441.5 471 Z " /><path fill="rgb(78,189,234)" stroke="rgb(78,189,234)" stroke-width="1" opacity="0.41568627450980394" d="M 459.5 471 L 460 473.5 L 459 473.5 L 459.5 471 Z " /><path fill="rgb(78,189,234)" stroke="rgb(78,189,234)" stroke-width="1" opacity="0.41568627450980394" d="M 812.5 471 L 813 476.5 L 810 487.5 L 803.5 497 L 799.5 498 L 799.5 497 Q 804.3 496.8 806 493.5 Q 811.7 484.7 812.5 471 Z " /><path fill="rgb(78,189,234)" stroke="rgb(78,189,234)" stroke-width="1" opacity="0.41568627450980394" d="M 786.5 472 L 788 477.5 L 787 477.5 L 786.5 472 Z " /><path fill="rgb(78,189,234)" stroke="rgb(78,189,234)" stroke-width="1" opacity="0.41568627450980394" d="M 767.5 473 L 768 476.5 L 766.5 480 L 766 477.5 L 767.5 473 Z " /><path fill="rgb(78,189,234)" stroke="rgb(78,189,234)" stroke-width="1" opacity="0.41568627450980394" d="M 795.5 474 L 799 484.5 L 798 484.5 L 795 476.5 L 795.5 474 Z " /><path fill="rgb(78,189,234)" stroke="rgb(78,189,234)" stroke-width="1" opacity="0.41568627450980394" d="M 458.5 475 L 459 477.5 L 453 492.5 L 448.5 497 L 444.5 498 L 438 492.5 L 435 485.5 L 434 478.5 L 435 478.5 Q 435.6 490.4 442.5 496 L 446.5 497 L 451 493.5 L 458.5 475 Z " /><path fill="rgb(78,189,234)" stroke="rgb(78,189,234)" stroke-width="1" opacity="0.41568627450980394" d="M 488.5 478 Q 494.1 496.9 506.5 509 Q 509.1 508.3 508 511 L 503 507.5 Q 494.5 497 489 483.5 L 488.5 478 Z " /><path fill="rgb(78,189,234)" stroke="rgb(78,189,234)" stroke-width="1" opacity="0.41568627450980394" d="M 803.5 478 L 804 480.5 L 803 480.5 L 803.5 478 Z " /><path fill="rgb(78,189,234)" stroke="rgb(78,189,234)" stroke-width="1" opacity="0.41568627450980394" d="M 480.5 479 L 483 486.5 L 482 486.5 L 480.5 479 Z " /><path fill="rgb(78,189,234)" stroke="rgb(78,189,234)" stroke-width="1" opacity="0.41568627450980394" d="M 504.5 481 L 507 495.5 L 506 495.5 L 504.5 481 Z " /><path fill="rgb(78,189,234)" stroke="rgb(78,189,234)" stroke-width="1" opacity="0.41568627450980394" d="M 765.5 481 L 766 482.5 L 763.5 488 L 763 486.5 L 765.5 481 Z " /><path fill="rgb(78,189,234)" stroke="rgb(78,189,234)" stroke-width="1" opacity="0.41568627450980394" d="M 789.5 482 Q 791.5 491.5 798 496.5 L 796.5 496 Q 794.3 496.8 795 494.5 Q 789.4 489.5 789.5 482 Z " /><path fill="rgb(78,189,234)" stroke="rgb(78,189,234)" stroke-width="1" opacity="0.41568627450980394" d="M 802.5 482 L 803 484.5 L 802 488 L 799 486.5 L 801 486.5 L 802.5 482 Z " /><path fill="rgb(78,189,234)" stroke="rgb(78,189,234)" stroke-width="1" opacity="0.41568627450980394" d="M 483.5 488 Q 490.1 505.4 502.5 517 L 508 519.5 L 505.5 520 L 496 511.5 Q 487.2 501.4 483.5 488 Z " /><path fill="rgb(78,189,234)" stroke="rgb(78,189,234)" stroke-width="1" opacity="0.41568627450980394" d="M 762.5 489 L 763 490.5 Q 756.3 507.3 743.5 518 L 741.5 519 L 742.5 517 L 751 509.5 L 762.5 489 Z " /><path fill="rgb(78,189,234)" stroke="rgb(78,189,234)" stroke-width="1" opacity="0.41568627450980394" d="M 514.5 490 L 515 495.5 L 514 495.5 L 514.5 490 Z " /><path fill="rgb(78,189,234)" stroke="rgb(78,189,234)" stroke-width="1" opacity="0.41568627450980394" d="M 507.5 497 L 508 504.5 L 507 504.5 L 507.5 497 Z " /><path fill="rgb(78,189,234)" stroke="rgb(78,189,234)" stroke-width="1" opacity="0.41568627450980394" d="M 515.5 497 L 516 514.5 L 514 519 L 510.5 520 L 510.5 519 L 514 516.5 L 515 514.5 L 515.5 497 Z " /><path fill="rgb(78,189,234)" stroke="rgb(78,189,234)" stroke-width="1" opacity="0.41568627450980394" d="M 730.5 502 L 731 511.5 L 730 511.5 L 730.5 502 Z " /><path fill="rgb(78,189,234)" stroke="rgb(78,189,234)" stroke-width="1" opacity="0.41568627450980394" d="M 731.5 513 L 734.5 519 L 740 519.5 L 734.5 520 Q 729.6 518.6 731.5 513 Z " /><path fill="rgb(78,189,234)" stroke="rgb(78,189,234)" stroke-width="1" opacity="0.41568627450980394" d="M 799.5 642 L 817.5 642 Q 831.8 645 841 652 L 841 655.5 L 833.5 667 L 817.5 659 L 801.5 658 Q 795.8 659.3 793 663.5 L 792.5 665 L 792 663.5 L 794.5 660 Q 800.7 655.2 813.5 657 Q 825 659.5 832.5 666 L 840 653.5 L 825.5 645 L 817.5 643 L 799.5 643 L 799.5 642 Z " /><path fill="rgb(78,189,234)" stroke="rgb(78,189,234)" stroke-width="1" opacity="0.41568627450980394" d="M 409 643 L 428 643 L 428 680 L 467 680 L 467.5 674 L 468 681 L 428.5 681 L 427 679.5 L 427 644 L 410 644 L 410 735.5 L 410.5 736 L 427 736 L 427 697.5 L 428.5 696 L 466.5 695 Q 470.7 697.8 469 706.5 L 468 706.5 Q 469 699 467 696 L 428 697 L 428 737 L 409 737 L 409 643 Z " /><path fill="rgb(78,189,234)" stroke="rgb(78,189,234)" stroke-width="1" opacity="0.41568627450980394" d="M 468.5 643 L 486.5 643 L 487 643.5 L 487 737 L 468.5 737 L 467 735.5 L 467.5 734 L 468 736 L 485.5 736 L 486 735.5 L 486 644 L 469.5 644 L 468 645.5 L 467.5 659 L 467 644.5 L 468.5 643 Z " /><path fill="rgb(78,189,234)" stroke="rgb(78,189,234)" stroke-width="1" opacity="0.41568627450980394" d="M 499 643 L 518.5 643 L 519 646.5 L 518 646.5 L 517.5 644 L 500 644 L 506 673.5 L 505 673.5 L 499 643 Z " /><path fill="rgb(78,189,234)" stroke="rgb(78,189,234)" stroke-width="1" opacity="0.41568627450980394" d="M 548 643 L 564.5 643 L 565 644.5 L 566 648.5 L 565 648.5 Q 565.8 644.8 563.5 644 L 549.5 644 L 548.5 645 L 548 643 Z " /><path fill="rgb(78,189,234)" stroke="rgb(78,189,234)" stroke-width="1" opacity="0.41568627450980394" d="M 595.5 643 L 613.5 643 Q 614.5 643 614 647.5 L 610.5 661 L 610 657.5 L 613 644 L 596.5 644 L 595 645.5 L 592.5 658 L 592 654.5 L 594 644.5 L 595.5 643 Z " /><path fill="rgb(78,189,234)" stroke="rgb(78,189,234)" stroke-width="1" opacity="0.41568627450980394" d="M 626 643 L 673.5 643 Q 686.3 645.7 693 654.5 L 699 667.5 L 699 679.5 L 698 679.5 L 698 667.5 L 691 653 Q 684.4 647.1 673.5 644 L 627 644 L 627 735.5 L 627.5 736 L 644 736 L 644.5 734 L 645 737 L 626.5 737 L 626 736.5 L 626 643 Z " /><path fill="rgb(78,189,234)" stroke="rgb(78,189,234)" stroke-width="1" opacity="0.41568627450980394" d="M 738 643 L 755.5 643 L 756 643.5 L 756 714.5 Q 754 727 745.5 733 L 734.5 738 Q 728.3 736.2 726.5 739 L 712 736.5 L 715.5 736 L 716.5 737 L 734.5 737 L 746 732 L 747.5 729 Q 749.8 729.8 749 727.5 Q 753.7 722.7 755 714.5 L 755 644 L 739.5 644 L 739 644.5 L 739 710.5 Q 737.9 717.9 732.5 721 Q 728.2 724.7 718.5 723 L 708.5 718 Q 703.7 723.7 703 732 L 711 735.5 L 709.5 736 L 702 731.5 L 707.5 717 L 718.5 722 L 728.5 722 L 736 716.5 L 738 710.5 L 738 643 Z " /><path fill="rgb(78,189,234)" stroke="rgb(78,189,234)" stroke-width="1" opacity="0.41568627450980394" d="M 794.5 643 L 798 643.5 Q 785.1 645.1 779 653.5 L 775 660.5 L 774 673.5 Q 775.9 685.1 784.5 690 L 795.5 695 L 814.5 700 Q 821.3 702.3 825 707.5 L 826 714.5 L 820.5 721 L 816.5 723 L 807.5 724 L 793.5 721 Q 784.4 717.6 778.5 711 L 771 724.5 Q 778.2 732.3 790 735.5 L 788.5 736 Q 777.6 732.4 770 725.5 L 777 710 L 793.5 720 L 809.5 723 L 818.5 721 L 824 716.5 L 825 710.5 L 820.5 704 L 814.5 701 L 790.5 694 L 778 685.5 Q 772.3 678.7 773 665.5 Q 775.2 653.7 783.5 648 L 794.5 643 Z " /><path fill="rgb(78,189,234)" stroke="rgb(78,189,234)" stroke-width="1" opacity="0.41568627450980394" d="M 547.5 646 L 548 648.5 L 546.5 653 L 546 649.5 L 547.5 646 Z " /><path fill="rgb(78,189,234)" stroke="rgb(78,189,234)" stroke-width="1" opacity="0.41568627450980394" d="M 519.5 648 L 520 651.5 L 519 651.5 L 519.5 648 Z " /><path fill="rgb(78,189,234)" stroke="rgb(78,189,234)" stroke-width="1" opacity="0.41568627450980394" d="M 566.5 650 L 569 660.5 L 568 660.5 L 566.5 650 Z " /><path fill="rgb(78,189,234)" stroke="rgb(78,189,234)" stroke-width="1" opacity="0.41568627450980394" d="M 520.5 654 L 523 667.5 L 522 667.5 L 520 658.5 L 520.5 654 Z " /><path fill="rgb(78,189,234)" stroke="rgb(78,189,234)" stroke-width="1" opacity="0.41568627450980394" d="M 545.5 654 L 546 656.5 L 542.5 669 L 542 665.5 L 545.5 654 Z " /><path fill="rgb(78,189,234)" stroke="rgb(78,189,234)" stroke-width="1" opacity="0.41568627450980394" d="M 646.5 657 L 665 657.5 L 646 658 L 645.5 660 L 645 658.5 L 646.5 657 Z " /><path fill="rgb(78,189,234)" stroke="rgb(78,189,234)" stroke-width="1" opacity="0.41568627450980394" d="M 666.5 658 Q 674.9 658.1 678 663.5 Q 682.3 667.7 681 677.5 Q 679.5 684 674.5 687 Q 664.1 692.1 646.5 690 L 645.5 688 L 646.5 689 L 664.5 689 Q 665.8 686.8 670.5 688 L 677 683.5 Q 681.3 679.3 680 669.5 L 676 662 Q 673 659.3 666.5 659 L 666.5 658 Z " /><path fill="rgb(78,189,234)" stroke="rgb(78,189,234)" stroke-width="1" opacity="0.41568627450980394" d="M 591.5 659 L 592 664.5 L 589.5 674 L 589 670.5 L 591.5 659 Z " /><path fill="rgb(78,189,234)" stroke="rgb(78,189,234)" stroke-width="1" opacity="0.41568627450980394" d="M 569.5 662 L 570 664.5 L 569 664.5 L 569.5 662 Z " /><path fill="rgb(78,189,234)" stroke="rgb(78,189,234)" stroke-width="1" opacity="0.41568627450980394" d="M 609.5 662 L 610 664.5 L 609 664.5 L 609.5 662 Z " /><path fill="rgb(78,189,234)" stroke="rgb(78,189,234)" stroke-width="1" opacity="0.41568627450980394" d="M 570.5 666 L 577 692.5 L 576 692.5 L 570 669.5 L 570.5 666 Z " /><path fill="rgb(78,189,234)" stroke="rgb(78,189,234)" stroke-width="1" opacity="0.41568627450980394" d="M 608.5 666 L 609 669.5 L 602.5 696 L 602 691.5 L 608.5 666 Z " /><path fill="rgb(78,189,234)" stroke="rgb(78,189,234)" stroke-width="1" opacity="0.41568627450980394" d="M 791.5 666 L 792 669.5 L 791 669.5 L 791.5 666 Z " /><path fill="rgb(78,189,234)" stroke="rgb(78,189,234)" stroke-width="1" opacity="0.41568627450980394" d="M 523.5 669 L 524 672.5 L 523 672.5 L 523.5 669 Z " /><path fill="rgb(78,189,234)" stroke="rgb(78,189,234)" stroke-width="1" opacity="0.41568627450980394" d="M 541.5 670 L 542 672.5 L 538.5 685 L 538 682.5 L 541.5 670 Z " /><path fill="rgb(78,189,234)" stroke="rgb(78,189,234)" stroke-width="1" opacity="0.41568627450980394" d="M 792.5 671 L 796.5 676 L 803 678.5 L 801.5 679 Q 795 677.5 792 672.5 L 792.5 671 Z " /><path fill="rgb(78,189,234)" stroke="rgb(78,189,234)" stroke-width="1" opacity="0.41568627450980394" d="M 556.5 673 Q 558.8 672.3 558 674.5 L 560 683.5 L 559 683.5 L 558 675 Q 555.3 673.9 556 676.5 L 554.5 681 L 554 677.5 L 556.5 673 Z " /><path fill="rgb(78,189,234)" stroke="rgb(78,189,234)" stroke-width="1" opacity="0.41568627450980394" d="M 524.5 674 L 527 687.5 L 526 687.5 L 524 678.5 L 524.5 674 Z " /><path fill="rgb(78,189,234)" stroke="rgb(78,189,234)" stroke-width="1" opacity="0.41568627450980394" d="M 506.5 675 L 513 703.5 L 512 703.5 L 506 678.5 L 506.5 675 Z " /><path fill="rgb(78,189,234)" stroke="rgb(78,189,234)" stroke-width="1" opacity="0.41568627450980394" d="M 588.5 675 L 589 678.5 L 584.5 700 L 584 695.5 L 588.5 675 Z " /><path fill="rgb(78,189,234)" stroke="rgb(78,189,234)" stroke-width="1" opacity="0.41568627450980394" d="M 645.5 675 L 646 683.5 L 645 683.5 L 645.5 675 Z " /><path fill="rgb(78,189,234)" stroke="rgb(78,189,234)" stroke-width="1" opacity="0.41568627450980394" d="M 804.5 679 L 825.5 685 Q 834.5 688.5 840 695.5 L 843 701.5 L 843 704.5 L 842 704.5 Q 841.1 695.9 835.5 692 L 825.5 686 L 804.5 680 L 804.5 679 Z " /><path fill="rgb(78,189,234)" stroke="rgb(78,189,234)" stroke-width="1" opacity="0.41568627450980394" d="M 697.5 681 L 698 683.5 Q 694.8 692.8 687.5 698 L 682.5 701 L 671.5 704 L 645 704 L 644.5 707 L 644 704.5 L 645.5 703 L 670.5 703 Q 671.7 700.8 676.5 702 Q 687.4 699.4 693 691.5 L 697.5 681 Z " /><path fill="rgb(78,189,234)" stroke="rgb(78,189,234)" stroke-width="1" opacity="0.41568627450980394" d="M 553.5 682 L 554 684.5 L 546.5 712 L 546 709.5 L 553.5 682 Z " /><path fill="rgb(78,189,234)" stroke="rgb(78,189,234)" stroke-width="1" opacity="0.41568627450980394" d="M 560.5 685 L 561 687.5 L 560 687.5 L 560.5 685 Z " /><path fill="rgb(78,189,234)" stroke="rgb(78,189,234)" stroke-width="1" opacity="0.41568627450980394" d="M 537.5 686 L 538 688.5 L 533 710 L 530 708.5 L 528 695.5 L 529 695.5 L 531.5 709 L 537.5 686 Z " /><path fill="rgb(78,189,234)" stroke="rgb(78,189,234)" stroke-width="1" opacity="0.41568627450980394" d="M 527.5 689 L 528 693.5 L 527 693.5 L 527.5 689 Z " /><path fill="rgb(78,189,234)" stroke="rgb(78,189,234)" stroke-width="1" opacity="0.41568627450980394" d="M 561.5 689 L 566 706.5 L 565 706.5 L 561.5 689 Z " /><path fill="rgb(78,189,234)" stroke="rgb(78,189,234)" stroke-width="1" opacity="0.41568627450980394" d="M 577.5 694 L 581.5 709 L 583.5 701 L 584 706.5 L 583 710 L 580 708.5 L 577.5 694 Z " /><path fill="rgb(78,189,234)" stroke="rgb(78,189,234)" stroke-width="1" opacity="0.41568627450980394" d="M 601.5 697 L 602 700.5 L 597.5 718 L 597 714.5 L 601.5 697 Z " /><path fill="rgb(78,189,234)" stroke="rgb(78,189,234)" stroke-width="1" opacity="0.41568627450980394" d="M 513.5 705 L 518 725.5 L 517 725.5 Q 516.5 715.5 513 708.5 L 513.5 705 Z " /><path fill="rgb(78,189,234)" stroke="rgb(78,189,234)" stroke-width="1" opacity="0.41568627450980394" d="M 843.5 706 L 844 714.5 L 843 714.5 L 843.5 706 Z " /><path fill="rgb(78,189,234)" stroke="rgb(78,189,234)" stroke-width="1" opacity="0.41568627450980394" d="M 468.5 708 L 469 717.5 L 468 717.5 L 468.5 708 Z " /><path fill="rgb(78,189,234)" stroke="rgb(78,189,234)" stroke-width="1" opacity="0.41568627450980394" d="M 566.5 708 L 568 714.5 L 567 714.5 L 566.5 708 Z " /><path fill="rgb(78,189,234)" stroke="rgb(78,189,234)" stroke-width="1" opacity="0.41568627450980394" d="M 545.5 713 L 546 715.5 L 543.5 724 L 543 720.5 L 545.5 713 Z " /><path fill="rgb(78,189,234)" stroke="rgb(78,189,234)" stroke-width="1" opacity="0.41568627450980394" d="M 568.5 716 L 573 733.5 L 572 733.5 L 568 719.5 L 568.5 716 Z " /><path fill="rgb(78,189,234)" stroke="rgb(78,189,234)" stroke-width="1" opacity="0.41568627450980394" d="M 842.5 716 L 843 718.5 Q 840.2 727.2 833.5 732 L 819.5 738 L 803.5 739 L 791 736.5 L 794.5 736 L 795.5 737 L 812.5 738 L 823.5 736 L 837 727.5 Q 841.3 723.3 842.5 716 Z " /><path fill="rgb(78,189,234)" stroke="rgb(78,189,234)" stroke-width="1" opacity="0.41568627450980394" d="M 596.5 719 L 597 721.5 L 593 737 L 573.5 737 L 573 735.5 L 574.5 736 L 591.5 736 L 593 734.5 L 596.5 719 Z " /><path fill="rgb(78,189,234)" stroke="rgb(78,189,234)" stroke-width="1" opacity="0.41568627450980394" d="M 542.5 725 L 543 727.5 L 539.5 737 L 520.5 737 L 520 735.5 L 521.5 736 L 539.5 736 L 540 732.5 L 542.5 725 Z " /><path fill="rgb(78,189,234)" stroke="rgb(78,189,234)" stroke-width="1" opacity="0.41568627450980394" d="M 518.5 727 L 519 729.5 L 518 729.5 L 518.5 727 Z " /><path fill="rgb(78,189,234)" stroke="rgb(78,189,234)" stroke-width="1" opacity="0.41568627450980394" d="M 519.5 731 L 520 733.5 L 519 733.5 L 519.5 731 Z " /><path fill="rgb(52,180,232)" stroke="rgb(52,180,232)" stroke-width="1" opacity="0.996078431372549" d="M 351.5 10 L 879.5 10 L 882 12.5 L 987 143.5 L 987 719.5 L 986 720.5 L 986 728.5 L 984 738.5 L 979 753.5 Q 969.7 774.7 953.5 789 Q 940.7 800.7 923.5 808 L 911.5 812 L 895.5 815 L 349.5 815 L 328.5 811 L 311.5 804 Q 293.1 793.9 280 778.5 L 266 756.5 L 260 739.5 L 258 730.5 L 258 722.5 L 257 721.5 L 257 103.5 L 260 86.5 L 270 62.5 Q 278.4 47.9 290.5 37 Q 303.1 25.6 319.5 18 L 334.5 13 L 351.5 10 Z M 362 41 L 361 42 L 351 42 L 336 46 L 316 58 Q 305 66 298 79 L 291 96 L 290 107 L 289 108 L 289 566 L 291 567 L 954 567 L 954 179 Q 952 175 946 177 L 944 177 Q 939 176 938 178 L 935 177 L 934 178 L 926 178 L 924 178 L 915 177 L 913 177 L 910 178 L 907 177 L 873 177 L 872 178 L 869 177 L 867 177 L 863 178 L 861 177 L 851 177 L 863 199 L 868 220 Q 869 249 856 264 L 842 276 L 839 279 L 839 290 L 836 298 L 824 317 L 811 330 L 808 331 Q 804 332 806 339 L 803 344 Q 794 355 781 362 L 782 365 L 785 367 Q 801 367 812 372 L 816 378 L 816 380 L 820 382 Q 839 402 845 437 Q 846 447 842 451 L 837 451 L 831 447 Q 817 435 808 420 L 802 408 L 801 403 L 800 401 L 791 401 L 782 399 Q 778 398 779 401 L 799 411 L 804 417 L 804 420 L 809 428 L 813 446 L 813 471 L 811 482 L 806 494 Q 805 498 799 497 Q 793 493 791 487 L 786 472 L 783 456 L 783 439 L 758 427 L 748 420 L 743 422 L 757 432 L 766 442 L 768 446 L 768 456 L 769 457 L 769 468 L 766 481 Q 760 497 751 510 L 741 519 L 735 519 L 731 513 L 731 500 L 732 499 L 733 486 L 741 460 L 724 448 Q 715 442 711 433 L 676 440 L 661 441 L 660 442 L 647 442 L 646 443 L 600 443 L 599 442 L 586 442 L 585 441 L 577 441 L 576 440 L 557 438 L 537 433 L 531 440 Q 520 452 505 462 L 511 477 L 515 497 L 515 515 L 514 517 L 510 520 L 503 517 Q 483 498 477 466 L 478 446 L 481 441 Q 489 431 500 425 Q 504 423 501 421 L 497 421 L 490 426 L 470 436 L 463 437 L 463 454 L 460 471 Q 457 484 451 494 L 447 497 L 443 496 L 436 486 L 433 471 L 433 446 Q 436 444 434 438 L 436 430 L 441 422 Q 440 416 443 415 Q 451 406 464 402 L 465 399 L 455 401 L 444 401 L 437 419 L 419 443 L 409 451 L 403 450 L 400 446 L 400 434 L 407 410 L 413 398 Q 419 387 428 380 L 431 373 L 445 368 L 459 367 L 461 366 L 462 362 L 450 353 L 438 341 L 437 334 L 428 326 Q 411 311 403 288 L 404 279 L 398 274 L 383 259 L 376 243 L 375 230 L 374 229 L 375 215 L 380 197 Q 386 182 396 172 Q 408 159 424 150 L 442 143 L 458 140 L 476 140 L 482 143 L 482 147 L 477 156 L 470 162 L 463 170 L 466 181 L 465 187 L 455 198 L 455 202 L 460 214 L 469 211 L 471 208 L 472 202 Q 475 197 482 195 L 485 191 L 487 181 L 490 176 L 494 177 Q 501 183 504 193 L 508 213 L 507 229 L 505 238 L 494 260 Q 479 281 447 283 L 455 317 Q 468 322 477 332 L 479 332 L 479 325 L 480 324 L 480 308 L 483 305 L 506 304 L 511 285 L 515 280 L 537 283 L 548 262 L 553 262 L 571 268 L 582 253 L 587 249 L 607 260 L 612 258 L 626 246 L 631 247 L 646 262 L 665 253 L 670 253 L 685 273 L 704 268 L 710 269 L 721 292 L 726 291 L 745 291 L 747 294 L 751 316 L 761 327 L 764 332 L 767 332 L 778 322 L 787 318 L 795 283 Q 792 281 785 282 L 772 278 L 760 271 Q 740 256 735 228 L 735 205 L 738 193 L 744 182 L 751 175 L 753 175 L 754 177 L 759 194 L 768 198 Q 772 203 773 211 L 783 213 L 787 202 L 786 196 L 784 194 Q 778 190 776 183 L 777 176 L 779 172 L 778 168 L 773 163 L 763 153 L 760 147 L 760 142 L 769 140 L 785 140 L 812 147 Q 828 154 841 166 L 841 43 L 840 41 L 362 41 Z M 873 53 L 873 125 L 874 126 L 873 127 L 873 145 L 876 146 L 879 145 L 931 145 L 932 146 L 947 145 L 875 55 Q 876 52 873 53 Z M 460 147 L 443 150 L 433 154 Q 417 161 406 172 Q 407 174 404 173 L 389 195 L 383 211 Q 385 216 382 218 L 382 236 L 383 241 L 392 259 L 407 271 L 410 271 L 417 267 L 429 267 L 439 270 Q 448 263 450 250 L 450 237 L 449 236 Q 447 225 451 220 Q 452 209 448 204 Q 447 197 449 194 L 458 184 Q 459 177 456 175 Q 455 167 458 164 L 467 156 L 472 150 L 472 147 L 460 147 Z M 770 147 L 772 153 L 782 161 L 786 168 Q 787 175 784 178 Q 783 184 786 186 Q 785 188 788 187 L 795 197 L 795 202 L 790 214 Q 790 220 793 225 L 793 238 L 792 239 Q 791 261 805 270 L 808 270 L 814 267 Q 829 265 835 272 L 844 266 Q 852 259 857 248 L 860 238 L 860 229 L 861 228 L 859 211 L 855 199 Q 849 185 840 176 Q 828 162 810 154 L 791 148 L 770 147 Z M 748 188 L 745 195 L 742 207 Q 740 240 755 257 Q 764 267 779 273 L 787 275 L 798 275 L 790 265 L 785 252 L 785 236 L 786 235 Q 787 226 784 222 L 769 217 L 765 213 L 763 204 L 756 201 Q 751 198 750 192 Q 751 187 748 188 Z M 494 189 L 490 199 Q 486 203 479 204 Q 477 206 478 212 L 476 216 L 458 222 L 456 227 Q 455 231 457 233 L 457 252 L 456 256 Q 453 267 445 274 L 447 276 L 458 275 L 465 273 L 480 264 L 493 248 L 500 226 L 500 206 L 497 195 L 494 189 Z M 627 254 L 609 269 L 588 258 L 576 274 L 573 276 L 552 270 L 543 288 L 541 290 L 518 288 L 512 309 L 507 312 L 489 312 L 487 314 L 487 332 L 468 367 L 464 378 Q 463 388 468 393 Q 478 403 492 410 L 525 423 L 565 432 L 590 434 L 591 435 L 603 435 L 604 436 L 643 436 L 644 435 L 656 435 L 657 434 L 674 433 L 701 428 L 737 417 L 751 411 L 768 400 Q 775 395 779 386 L 779 377 L 775 366 L 761 339 L 745 320 L 740 298 L 733 298 L 732 299 L 717 299 L 714 297 L 705 276 L 682 281 L 667 261 L 648 270 L 644 270 L 627 254 Z M 419 274 L 416 275 L 410 282 L 412 292 L 424 312 L 440 326 L 442 326 L 448 320 Q 445 297 437 280 L 427 274 L 419 274 Z M 817 274 L 808 278 L 804 283 L 800 294 L 795 314 L 795 321 L 802 326 L 806 325 Q 817 316 825 303 L 832 288 L 832 280 Q 828 273 817 274 Z M 454 325 L 450 327 Q 445 330 444 338 Q 452 349 466 354 L 473 342 L 473 339 L 463 328 L 457 325 L 454 325 Z M 788 325 Q 777 330 770 339 L 778 354 L 790 347 Q 796 343 799 336 L 797 331 Q 794 326 788 325 Z M 451 374 L 439 377 L 436 380 Q 442 385 446 394 L 459 393 L 457 386 L 457 378 L 458 377 L 458 374 L 451 374 Z M 786 374 L 786 381 L 787 382 L 785 393 L 800 394 Q 802 385 808 380 L 803 376 L 786 374 Z M 813 386 Q 808 389 807 395 L 808 404 L 814 416 L 827 434 L 837 443 L 838 443 L 837 431 L 833 418 Q 828 403 819 392 L 813 386 Z M 430 387 Q 413 405 407 435 L 407 443 L 409 443 L 428 420 L 438 399 L 436 391 Q 435 386 430 387 Z M 473 406 L 452 416 L 449 420 L 455 423 L 460 430 L 466 430 L 488 419 L 489 417 L 473 406 Z M 772 406 L 755 417 Q 767 426 785 430 L 787 427 L 797 420 L 791 414 L 772 406 Z M 734 425 L 721 430 Q 717 429 718 433 Q 729 446 745 454 L 756 449 L 760 449 L 759 445 Q 749 432 734 425 Z M 510 426 L 494 438 Q 487 442 486 449 Q 495 449 500 454 L 508 451 L 518 443 L 528 432 L 514 426 L 510 426 Z M 447 427 L 442 434 L 440 444 L 440 470 L 444 487 L 447 488 L 452 473 L 456 452 Q 458 439 454 433 L 447 427 Z M 799 427 L 792 431 L 790 436 L 790 455 L 793 470 L 799 487 L 802 488 L 806 469 L 805 440 L 801 429 Q 802 426 799 427 Z M 759 456 L 752 459 L 749 462 L 743 475 L 738 503 L 738 511 L 740 511 Q 759 493 762 459 L 759 456 Z M 485 457 L 484 461 L 489 484 Q 495 497 503 508 L 508 511 L 508 498 L 506 491 L 506 486 L 498 463 Q 495 456 485 457 Z M 800 642 L 789 645 L 784 648 Q 775 654 773 666 Q 772 679 778 686 L 791 694 L 815 701 L 821 704 L 825 711 L 824 717 L 819 721 L 810 723 L 794 720 L 777 710 L 770 726 L 786 735 L 804 739 L 820 738 L 834 732 Q 842 726 844 715 L 843 702 L 840 696 Q 835 688 826 685 L 797 676 L 792 671 L 793 664 Q 796 659 802 658 L 818 659 L 834 667 L 841 656 L 841 652 Q 832 645 818 642 L 800 642 Z M 409 643 L 409 737 L 428 737 L 428 697 L 467 696 L 468 699 L 468 734 L 467 735 L 469 737 L 487 737 L 487 737 L 487 643 L 469 643 L 467 645 L 467 659 L 468 660 L 468 674 L 467 680 L 428 680 L 428 643 L 409 643 Z M 499 643 L 509 692 L 520 735 L 521 737 L 540 737 L 541 736 L 556 677 Q 555 674 558 675 L 564 704 L 568 716 L 568 720 L 573 735 L 574 737 L 593 737 L 614 648 Q 614 643 614 643 L 596 643 L 594 645 L 591 665 L 584 696 L 583 707 L 582 709 L 565 645 L 565 643 L 548 643 L 532 709 L 519 648 Q 519 643 519 643 L 499 643 Z M 626 643 L 626 737 L 645 737 L 645 704 L 672 704 L 683 701 L 688 698 Q 697 692 699 680 L 699 668 L 693 655 Q 686 646 674 643 L 626 643 Z M 738 643 L 738 711 L 736 717 L 729 722 L 719 722 L 708 717 L 702 732 L 713 737 L 726 738 L 727 739 Q 728 736 735 738 L 746 733 Q 754 727 756 715 L 756 644 L 756 643 L 738 643 Z " /><path fill="rgb(52,180,232)" stroke="rgb(52,180,232)" stroke-width="1" opacity="0.996078431372549" d="M 573.5 338 Q 588.3 337.7 593 347.5 L 597 355.5 L 597 368.5 Q 594.5 377 588.5 382 Q 583.5 387.5 571.5 386 Q 563.5 383.5 559 377.5 Q 553 370.5 555 355.5 L 561 344 L 573.5 338 Z M 567 347 L 562 353 Q 561 359 563 363 L 568 366 L 574 365 L 578 359 Q 579 353 576 351 Q 575 346 567 347 Z " /><path fill="rgb(52,180,232)" stroke="rgb(52,180,232)" stroke-width="1" opacity="0.996078431372549" d="M 663.5 338 Q 678.6 338.4 684 348.5 Q 688 354.5 688 364.5 Q 685.8 365.8 687 370.5 L 684 376.5 L 677.5 383 Q 672.7 387.2 662.5 386 Q 654.2 384.3 650 378.5 Q 644.7 372.3 644 361.5 L 647 350.5 L 655.5 341 L 663.5 338 Z M 657 347 L 652 352 L 651 356 L 652 362 L 658 366 L 664 365 L 668 359 Q 669 353 666 351 Q 665 346 657 347 Z " /><path fill="rgb(52,180,232)" stroke="rgb(52,180,232)" stroke-width="1" opacity="0.996078431372549" d="M 594.5 397 Q 601.3 404.7 612.5 408 L 629.5 408 L 638.5 405 L 647.5 397 L 649.5 397 Q 652.8 397.8 652 402.5 L 648.5 407 L 632.5 415 L 617.5 416 L 607.5 414 L 593 406 L 591 402.5 L 591 399.5 L 594.5 397 Z " /><path fill="rgb(52,180,232)" stroke="rgb(52,180,232)" stroke-width="1" opacity="0.996078431372549" d="M 646 658 L 665.5 658 L 676 662 L 680 669.5 L 680 677.5 L 674.5 686 Q 664.1 691.1 646.5 689 Q 644.3 688.3 645 684.5 L 646 683.5 L 646 675.5 L 645 674.5 L 645 660.5 L 646 658 Z " /></svg>
